<mxfile host="app.diagrams.net" modified="2023-09-22T11:00:18.123Z" agent="Mozilla/5.0 (Macintosh; Intel Mac OS X 10_15_7) AppleWebKit/537.36 (KHTML, like Gecko) Chrome/117.0.0.0 Safari/537.36 Edg/117.0.2045.35" etag="tokidvi05aOnUwSrIWyQ" version="21.8.0" type="device">
  <diagram name="Page-1" id="6ygb2wI6u9G0JBywM7nQ">
    <mxGraphModel dx="1269" dy="309" grid="0" gridSize="10" guides="1" tooltips="1" connect="1" arrows="1" fold="1" page="0" pageScale="1" pageWidth="850" pageHeight="1100" math="0" shadow="0">
      <root>
        <mxCell id="0" />
        <mxCell id="1" style="" parent="0" />
        <mxCell id="T7_ayMRb7OsO0juk5p_l-22" value="The Relationship between IV(A), IV(B) and DV" style="shape=table;startSize=30;container=1;collapsible=0;childLayout=tableLayout;fixedRows=1;rowLines=0;fontStyle=0;strokeColor=#23445d;fontSize=16;fontFamily=Atkinson Hyperlegible;fontSource=https%3A%2F%2Ffonts.googleapis.com%2Fcss%3Ffamily%3DAtkinson%2BHyperlegible;fillColor=#bac8d3;" vertex="1" parent="1">
          <mxGeometry x="220" y="620" width="473" height="250" as="geometry" />
        </mxCell>
        <mxCell id="T7_ayMRb7OsO0juk5p_l-23" value="" style="shape=tableRow;horizontal=0;startSize=0;swimlaneHead=0;swimlaneBody=0;top=0;left=0;bottom=0;right=0;collapsible=0;dropTarget=0;fillColor=none;points=[[0,0.5],[1,0.5]];portConstraint=eastwest;strokeColor=inherit;fontSize=16;fontFamily=Atkinson Hyperlegible;fontSource=https%3A%2F%2Ffonts.googleapis.com%2Fcss%3Ffamily%3DAtkinson%2BHyperlegible;" vertex="1" parent="T7_ayMRb7OsO0juk5p_l-22">
          <mxGeometry y="30" width="473" height="20" as="geometry" />
        </mxCell>
        <mxCell id="T7_ayMRb7OsO0juk5p_l-24" value="" style="shape=partialRectangle;html=1;whiteSpace=wrap;connectable=0;fillColor=none;top=0;left=0;bottom=0;right=0;overflow=hidden;pointerEvents=1;strokeColor=inherit;fontSize=16;fontFamily=Atkinson Hyperlegible;fontSource=https%3A%2F%2Ffonts.googleapis.com%2Fcss%3Ffamily%3DAtkinson%2BHyperlegible;" vertex="1" parent="T7_ayMRb7OsO0juk5p_l-23">
          <mxGeometry width="53" height="20" as="geometry">
            <mxRectangle width="53" height="20" as="alternateBounds" />
          </mxGeometry>
        </mxCell>
        <mxCell id="T7_ayMRb7OsO0juk5p_l-62" style="shape=partialRectangle;html=1;whiteSpace=wrap;connectable=0;fillColor=none;top=0;left=0;bottom=0;right=0;overflow=hidden;pointerEvents=1;strokeColor=inherit;fontSize=16;fontFamily=Atkinson Hyperlegible;fontSource=https%3A%2F%2Ffonts.googleapis.com%2Fcss%3Ffamily%3DAtkinson%2BHyperlegible;" vertex="1" parent="T7_ayMRb7OsO0juk5p_l-23">
          <mxGeometry x="53" width="27" height="20" as="geometry">
            <mxRectangle width="27" height="20" as="alternateBounds" />
          </mxGeometry>
        </mxCell>
        <mxCell id="T7_ayMRb7OsO0juk5p_l-25" value="" style="shape=partialRectangle;html=1;whiteSpace=wrap;connectable=0;fillColor=#fff2cc;top=0;left=0;bottom=0;right=0;align=center;spacingLeft=6;overflow=hidden;strokeColor=#d6b656;fontSize=16;rowspan=1;colspan=2;fontFamily=Atkinson Hyperlegible;fontSource=https%3A%2F%2Ffonts.googleapis.com%2Fcss%3Ffamily%3DAtkinson%2BHyperlegible;" vertex="1" parent="T7_ayMRb7OsO0juk5p_l-23">
          <mxGeometry x="80" width="393" height="20" as="geometry">
            <mxRectangle width="209" height="20" as="alternateBounds" />
          </mxGeometry>
        </mxCell>
        <mxCell id="T7_ayMRb7OsO0juk5p_l-32" style="shape=partialRectangle;html=1;whiteSpace=wrap;connectable=0;fillColor=none;top=0;left=0;bottom=0;right=0;align=left;spacingLeft=6;overflow=hidden;strokeColor=inherit;fontSize=16;" vertex="1" visible="0" parent="T7_ayMRb7OsO0juk5p_l-23">
          <mxGeometry x="289" width="184" height="20" as="geometry">
            <mxRectangle width="184" height="20" as="alternateBounds" />
          </mxGeometry>
        </mxCell>
        <mxCell id="T7_ayMRb7OsO0juk5p_l-58" style="shape=tableRow;horizontal=0;startSize=0;swimlaneHead=0;swimlaneBody=0;top=0;left=0;bottom=0;right=0;collapsible=0;dropTarget=0;fillColor=none;points=[[0,0.5],[1,0.5]];portConstraint=eastwest;strokeColor=inherit;fontSize=16;fontFamily=Atkinson Hyperlegible;fontSource=https%3A%2F%2Ffonts.googleapis.com%2Fcss%3Ffamily%3DAtkinson%2BHyperlegible;" vertex="1" parent="T7_ayMRb7OsO0juk5p_l-22">
          <mxGeometry y="50" width="473" height="20" as="geometry" />
        </mxCell>
        <mxCell id="T7_ayMRb7OsO0juk5p_l-59" style="shape=partialRectangle;html=1;whiteSpace=wrap;connectable=0;fillColor=none;top=0;left=0;bottom=0;right=0;overflow=hidden;pointerEvents=1;strokeColor=inherit;fontSize=16;fontFamily=Atkinson Hyperlegible;fontSource=https%3A%2F%2Ffonts.googleapis.com%2Fcss%3Ffamily%3DAtkinson%2BHyperlegible;" vertex="1" parent="T7_ayMRb7OsO0juk5p_l-58">
          <mxGeometry width="53" height="20" as="geometry">
            <mxRectangle width="53" height="20" as="alternateBounds" />
          </mxGeometry>
        </mxCell>
        <mxCell id="T7_ayMRb7OsO0juk5p_l-63" style="shape=partialRectangle;html=1;whiteSpace=wrap;connectable=0;fillColor=none;top=0;left=0;bottom=0;right=0;overflow=hidden;pointerEvents=1;strokeColor=inherit;fontSize=16;fontFamily=Atkinson Hyperlegible;fontSource=https%3A%2F%2Ffonts.googleapis.com%2Fcss%3Ffamily%3DAtkinson%2BHyperlegible;" vertex="1" parent="T7_ayMRb7OsO0juk5p_l-58">
          <mxGeometry x="53" width="27" height="20" as="geometry">
            <mxRectangle width="27" height="20" as="alternateBounds" />
          </mxGeometry>
        </mxCell>
        <mxCell id="T7_ayMRb7OsO0juk5p_l-60" value="B1" style="shape=partialRectangle;html=1;whiteSpace=wrap;connectable=0;fillColor=#fff2cc;top=1;left=1;bottom=1;right=1;align=center;spacingLeft=6;overflow=hidden;strokeColor=#d6b656;fontSize=16;fontFamily=Atkinson Hyperlegible;fontSource=https%3A%2F%2Ffonts.googleapis.com%2Fcss%3Ffamily%3DAtkinson%2BHyperlegible;" vertex="1" parent="T7_ayMRb7OsO0juk5p_l-58">
          <mxGeometry x="80" width="209" height="20" as="geometry">
            <mxRectangle width="209" height="20" as="alternateBounds" />
          </mxGeometry>
        </mxCell>
        <mxCell id="T7_ayMRb7OsO0juk5p_l-61" value="B2" style="shape=partialRectangle;html=1;whiteSpace=wrap;connectable=0;fillColor=#fff2cc;top=1;left=1;bottom=1;right=1;align=center;spacingLeft=6;overflow=hidden;strokeColor=#d6b656;fontSize=16;fontFamily=Atkinson Hyperlegible;fontSource=https%3A%2F%2Ffonts.googleapis.com%2Fcss%3Ffamily%3DAtkinson%2BHyperlegible;" vertex="1" parent="T7_ayMRb7OsO0juk5p_l-58">
          <mxGeometry x="289" width="184" height="20" as="geometry">
            <mxRectangle width="184" height="20" as="alternateBounds" />
          </mxGeometry>
        </mxCell>
        <mxCell id="T7_ayMRb7OsO0juk5p_l-26" value="" style="shape=tableRow;horizontal=0;startSize=0;swimlaneHead=0;swimlaneBody=0;top=0;left=0;bottom=0;right=0;collapsible=0;dropTarget=0;fillColor=none;points=[[0,0.5],[1,0.5]];portConstraint=eastwest;strokeColor=inherit;fontSize=16;fontFamily=Atkinson Hyperlegible;fontSource=https%3A%2F%2Ffonts.googleapis.com%2Fcss%3Ffamily%3DAtkinson%2BHyperlegible;" vertex="1" parent="T7_ayMRb7OsO0juk5p_l-22">
          <mxGeometry y="70" width="473" height="90" as="geometry" />
        </mxCell>
        <mxCell id="T7_ayMRb7OsO0juk5p_l-27" value="" style="shape=partialRectangle;html=1;whiteSpace=wrap;connectable=0;fillColor=#dae8fc;top=1;left=1;bottom=1;right=1;overflow=hidden;strokeColor=#6c8ebf;fontSize=16;rowspan=2;colspan=1;flipV=0;flipH=1;horizontal=0;perimeterSpacing=1;fontFamily=Atkinson Hyperlegible;fontSource=https%3A%2F%2Ffonts.googleapis.com%2Fcss%3Ffamily%3DAtkinson%2BHyperlegible;" vertex="1" parent="T7_ayMRb7OsO0juk5p_l-26">
          <mxGeometry width="53" height="180" as="geometry">
            <mxRectangle width="53" height="90" as="alternateBounds" />
          </mxGeometry>
        </mxCell>
        <mxCell id="T7_ayMRb7OsO0juk5p_l-64" value="A1" style="shape=partialRectangle;html=1;whiteSpace=wrap;connectable=0;fillColor=#dae8fc;top=1;left=1;bottom=1;right=1;overflow=hidden;strokeColor=#6c8ebf;fontSize=16;flipV=0;flipH=1;horizontal=0;labelBorderColor=none;fontFamily=Atkinson Hyperlegible;fontSource=https%3A%2F%2Ffonts.googleapis.com%2Fcss%3Ffamily%3DAtkinson%2BHyperlegible;" vertex="1" parent="T7_ayMRb7OsO0juk5p_l-26">
          <mxGeometry x="53" width="27" height="90" as="geometry">
            <mxRectangle width="27" height="90" as="alternateBounds" />
          </mxGeometry>
        </mxCell>
        <mxCell id="T7_ayMRb7OsO0juk5p_l-28" value="DV for A1,B1" style="shape=partialRectangle;html=1;whiteSpace=wrap;connectable=0;fillColor=none;top=1;left=1;bottom=1;right=1;align=center;spacingLeft=6;overflow=hidden;strokeColor=inherit;fontSize=16;labelBorderColor=none;fontFamily=Atkinson Hyperlegible;fontSource=https%3A%2F%2Ffonts.googleapis.com%2Fcss%3Ffamily%3DAtkinson%2BHyperlegible;" vertex="1" parent="T7_ayMRb7OsO0juk5p_l-26">
          <mxGeometry x="80" width="209" height="90" as="geometry">
            <mxRectangle width="209" height="90" as="alternateBounds" />
          </mxGeometry>
        </mxCell>
        <mxCell id="T7_ayMRb7OsO0juk5p_l-33" value="DV for A1,B2" style="shape=partialRectangle;html=1;whiteSpace=wrap;connectable=0;fillColor=none;top=1;left=1;bottom=1;right=1;align=center;spacingLeft=6;overflow=hidden;strokeColor=inherit;fontSize=16;labelBorderColor=none;fontFamily=Atkinson Hyperlegible;fontSource=https%3A%2F%2Ffonts.googleapis.com%2Fcss%3Ffamily%3DAtkinson%2BHyperlegible;" vertex="1" parent="T7_ayMRb7OsO0juk5p_l-26">
          <mxGeometry x="289" width="184" height="90" as="geometry">
            <mxRectangle width="184" height="90" as="alternateBounds" />
          </mxGeometry>
        </mxCell>
        <mxCell id="T7_ayMRb7OsO0juk5p_l-29" value="" style="shape=tableRow;horizontal=0;startSize=0;swimlaneHead=0;swimlaneBody=0;top=0;left=0;bottom=0;right=0;collapsible=0;dropTarget=0;fillColor=none;points=[[0,0.5],[1,0.5]];portConstraint=eastwest;strokeColor=inherit;fontSize=16;fontFamily=Atkinson Hyperlegible;fontSource=https%3A%2F%2Ffonts.googleapis.com%2Fcss%3Ffamily%3DAtkinson%2BHyperlegible;" vertex="1" parent="T7_ayMRb7OsO0juk5p_l-22">
          <mxGeometry y="160" width="473" height="90" as="geometry" />
        </mxCell>
        <mxCell id="T7_ayMRb7OsO0juk5p_l-30" value="3" style="shape=partialRectangle;html=1;whiteSpace=wrap;connectable=0;fillColor=none;top=0;left=0;bottom=0;right=0;overflow=hidden;strokeColor=inherit;fontSize=16;" vertex="1" visible="0" parent="T7_ayMRb7OsO0juk5p_l-29">
          <mxGeometry width="53" height="90" as="geometry">
            <mxRectangle width="53" height="90" as="alternateBounds" />
          </mxGeometry>
        </mxCell>
        <mxCell id="T7_ayMRb7OsO0juk5p_l-65" value="A2" style="shape=partialRectangle;html=1;whiteSpace=wrap;connectable=0;fillColor=#dae8fc;top=1;left=1;bottom=1;right=1;overflow=hidden;strokeColor=#6c8ebf;fontSize=16;horizontal=0;perimeterSpacing=2;fontFamily=Atkinson Hyperlegible;fontSource=https%3A%2F%2Ffonts.googleapis.com%2Fcss%3Ffamily%3DAtkinson%2BHyperlegible;" vertex="1" parent="T7_ayMRb7OsO0juk5p_l-29">
          <mxGeometry x="53" width="27" height="90" as="geometry">
            <mxRectangle width="27" height="90" as="alternateBounds" />
          </mxGeometry>
        </mxCell>
        <mxCell id="T7_ayMRb7OsO0juk5p_l-31" value="DV for A2,B1" style="shape=partialRectangle;html=1;whiteSpace=wrap;connectable=0;fillColor=none;top=1;left=1;bottom=1;right=1;align=center;spacingLeft=6;overflow=hidden;strokeColor=default;fontSize=16;labelBorderColor=none;fontFamily=Atkinson Hyperlegible;fontSource=https%3A%2F%2Ffonts.googleapis.com%2Fcss%3Ffamily%3DAtkinson%2BHyperlegible;" vertex="1" parent="T7_ayMRb7OsO0juk5p_l-29">
          <mxGeometry x="80" width="209" height="90" as="geometry">
            <mxRectangle width="209" height="90" as="alternateBounds" />
          </mxGeometry>
        </mxCell>
        <mxCell id="T7_ayMRb7OsO0juk5p_l-34" value="DV for A2,B2" style="shape=partialRectangle;html=1;whiteSpace=wrap;connectable=0;fillColor=none;top=1;left=1;bottom=1;right=1;align=center;spacingLeft=6;overflow=hidden;strokeColor=default;fontSize=16;labelBorderColor=none;fontFamily=Atkinson Hyperlegible;fontSource=https%3A%2F%2Ffonts.googleapis.com%2Fcss%3Ffamily%3DAtkinson%2BHyperlegible;" vertex="1" parent="T7_ayMRb7OsO0juk5p_l-29">
          <mxGeometry x="289" width="184" height="90" as="geometry">
            <mxRectangle width="184" height="90" as="alternateBounds" />
          </mxGeometry>
        </mxCell>
        <mxCell id="T7_ayMRb7OsO0juk5p_l-37" value="IV(A)" style="shape=table;startSize=30;container=1;collapsible=0;childLayout=tableLayout;fixedRows=1;rowLines=0;fontStyle=1;strokeColor=#6c8ebf;fontSize=16;fillColor=#dae8fc;fontFamily=Atkinson Hyperlegible;fontSource=https%3A%2F%2Ffonts.googleapis.com%2Fcss%3Ffamily%3DAtkinson%2BHyperlegible;" vertex="1" parent="1">
          <mxGeometry x="20" y="620" width="180" height="120" as="geometry" />
        </mxCell>
        <mxCell id="T7_ayMRb7OsO0juk5p_l-38" value="" style="shape=tableRow;horizontal=0;startSize=0;swimlaneHead=0;swimlaneBody=0;top=0;left=0;bottom=0;right=0;collapsible=0;dropTarget=0;fillColor=none;points=[[0,0.5],[1,0.5]];portConstraint=eastwest;strokeColor=inherit;fontSize=16;fontFamily=Atkinson Hyperlegible;fontSource=https%3A%2F%2Ffonts.googleapis.com%2Fcss%3Ffamily%3DAtkinson%2BHyperlegible;" vertex="1" parent="T7_ayMRb7OsO0juk5p_l-37">
          <mxGeometry y="30" width="180" height="30" as="geometry" />
        </mxCell>
        <mxCell id="T7_ayMRb7OsO0juk5p_l-39" value="A1" style="shape=partialRectangle;html=1;whiteSpace=wrap;connectable=0;fillColor=none;top=1;left=1;bottom=1;right=1;overflow=hidden;pointerEvents=1;strokeColor=inherit;fontSize=16;fontFamily=Atkinson Hyperlegible;fontSource=https%3A%2F%2Ffonts.googleapis.com%2Fcss%3Ffamily%3DAtkinson%2BHyperlegible;" vertex="1" parent="T7_ayMRb7OsO0juk5p_l-38">
          <mxGeometry width="40" height="30" as="geometry">
            <mxRectangle width="40" height="30" as="alternateBounds" />
          </mxGeometry>
        </mxCell>
        <mxCell id="T7_ayMRb7OsO0juk5p_l-40" value="" style="shape=partialRectangle;html=1;whiteSpace=wrap;connectable=0;fillColor=none;top=1;left=1;bottom=1;right=1;align=left;spacingLeft=6;overflow=hidden;strokeColor=inherit;fontSize=16;fontFamily=Atkinson Hyperlegible;fontSource=https%3A%2F%2Ffonts.googleapis.com%2Fcss%3Ffamily%3DAtkinson%2BHyperlegible;" vertex="1" parent="T7_ayMRb7OsO0juk5p_l-38">
          <mxGeometry x="40" width="140" height="30" as="geometry">
            <mxRectangle width="140" height="30" as="alternateBounds" />
          </mxGeometry>
        </mxCell>
        <mxCell id="T7_ayMRb7OsO0juk5p_l-41" value="" style="shape=tableRow;horizontal=0;startSize=0;swimlaneHead=0;swimlaneBody=0;top=0;left=0;bottom=0;right=0;collapsible=0;dropTarget=0;fillColor=none;points=[[0,0.5],[1,0.5]];portConstraint=eastwest;strokeColor=inherit;fontSize=16;fontFamily=Atkinson Hyperlegible;fontSource=https%3A%2F%2Ffonts.googleapis.com%2Fcss%3Ffamily%3DAtkinson%2BHyperlegible;" vertex="1" parent="T7_ayMRb7OsO0juk5p_l-37">
          <mxGeometry y="60" width="180" height="30" as="geometry" />
        </mxCell>
        <mxCell id="T7_ayMRb7OsO0juk5p_l-42" value="A2" style="shape=partialRectangle;html=1;whiteSpace=wrap;connectable=0;fillColor=none;top=1;left=1;bottom=1;right=1;overflow=hidden;strokeColor=inherit;fontSize=16;fontFamily=Atkinson Hyperlegible;fontSource=https%3A%2F%2Ffonts.googleapis.com%2Fcss%3Ffamily%3DAtkinson%2BHyperlegible;" vertex="1" parent="T7_ayMRb7OsO0juk5p_l-41">
          <mxGeometry width="40" height="30" as="geometry">
            <mxRectangle width="40" height="30" as="alternateBounds" />
          </mxGeometry>
        </mxCell>
        <mxCell id="T7_ayMRb7OsO0juk5p_l-43" value="" style="shape=partialRectangle;html=1;whiteSpace=wrap;connectable=0;fillColor=none;top=1;left=1;bottom=1;right=1;align=left;spacingLeft=6;overflow=hidden;strokeColor=inherit;fontSize=16;fontFamily=Atkinson Hyperlegible;fontSource=https%3A%2F%2Ffonts.googleapis.com%2Fcss%3Ffamily%3DAtkinson%2BHyperlegible;" vertex="1" parent="T7_ayMRb7OsO0juk5p_l-41">
          <mxGeometry x="40" width="140" height="30" as="geometry">
            <mxRectangle width="140" height="30" as="alternateBounds" />
          </mxGeometry>
        </mxCell>
        <mxCell id="T7_ayMRb7OsO0juk5p_l-66" style="shape=tableRow;horizontal=0;startSize=0;swimlaneHead=0;swimlaneBody=0;top=0;left=0;bottom=0;right=0;collapsible=0;dropTarget=0;fillColor=none;points=[[0,0.5],[1,0.5]];portConstraint=eastwest;strokeColor=inherit;fontSize=16;fontFamily=Atkinson Hyperlegible;fontSource=https%3A%2F%2Ffonts.googleapis.com%2Fcss%3Ffamily%3DAtkinson%2BHyperlegible;" vertex="1" parent="T7_ayMRb7OsO0juk5p_l-37">
          <mxGeometry y="90" width="180" height="30" as="geometry" />
        </mxCell>
        <mxCell id="T7_ayMRb7OsO0juk5p_l-67" value="Type" style="shape=partialRectangle;html=1;whiteSpace=wrap;connectable=0;fillColor=none;top=0;left=0;bottom=0;right=0;overflow=hidden;strokeColor=inherit;fontSize=16;fontFamily=Atkinson Hyperlegible;fontSource=https%3A%2F%2Ffonts.googleapis.com%2Fcss%3Ffamily%3DAtkinson%2BHyperlegible;" vertex="1" parent="T7_ayMRb7OsO0juk5p_l-66">
          <mxGeometry width="40" height="30" as="geometry">
            <mxRectangle width="40" height="30" as="alternateBounds" />
          </mxGeometry>
        </mxCell>
        <mxCell id="T7_ayMRb7OsO0juk5p_l-68" value="" style="shape=partialRectangle;html=1;whiteSpace=wrap;connectable=0;fillColor=none;top=0;left=0;bottom=0;right=0;align=left;spacingLeft=6;overflow=hidden;strokeColor=inherit;fontSize=16;fontFamily=Atkinson Hyperlegible;fontSource=https%3A%2F%2Ffonts.googleapis.com%2Fcss%3Ffamily%3DAtkinson%2BHyperlegible;" vertex="1" parent="T7_ayMRb7OsO0juk5p_l-66">
          <mxGeometry x="40" width="140" height="30" as="geometry">
            <mxRectangle width="140" height="30" as="alternateBounds" />
          </mxGeometry>
        </mxCell>
        <mxCell id="T7_ayMRb7OsO0juk5p_l-47" value="IV(B)" style="shape=table;startSize=30;container=1;collapsible=0;childLayout=tableLayout;fixedRows=1;rowLines=0;fontStyle=1;strokeColor=#d6b656;fontSize=16;fillColor=#fff2cc;fontFamily=Atkinson Hyperlegible;fontSource=https%3A%2F%2Ffonts.googleapis.com%2Fcss%3Ffamily%3DAtkinson%2BHyperlegible;" vertex="1" parent="1">
          <mxGeometry x="20" y="750" width="180" height="120" as="geometry" />
        </mxCell>
        <mxCell id="T7_ayMRb7OsO0juk5p_l-48" value="" style="shape=tableRow;horizontal=0;startSize=0;swimlaneHead=0;swimlaneBody=0;top=0;left=0;bottom=0;right=0;collapsible=0;dropTarget=0;fillColor=none;points=[[0,0.5],[1,0.5]];portConstraint=eastwest;strokeColor=inherit;fontSize=16;fontFamily=Atkinson Hyperlegible;fontSource=https%3A%2F%2Ffonts.googleapis.com%2Fcss%3Ffamily%3DAtkinson%2BHyperlegible;" vertex="1" parent="T7_ayMRb7OsO0juk5p_l-47">
          <mxGeometry y="30" width="180" height="30" as="geometry" />
        </mxCell>
        <mxCell id="T7_ayMRb7OsO0juk5p_l-49" value="B1" style="shape=partialRectangle;html=1;whiteSpace=wrap;connectable=0;fillColor=none;top=1;left=1;bottom=1;right=1;overflow=hidden;pointerEvents=1;strokeColor=inherit;fontSize=16;fontFamily=Atkinson Hyperlegible;fontSource=https%3A%2F%2Ffonts.googleapis.com%2Fcss%3Ffamily%3DAtkinson%2BHyperlegible;" vertex="1" parent="T7_ayMRb7OsO0juk5p_l-48">
          <mxGeometry width="40" height="30" as="geometry">
            <mxRectangle width="40" height="30" as="alternateBounds" />
          </mxGeometry>
        </mxCell>
        <mxCell id="T7_ayMRb7OsO0juk5p_l-50" value="" style="shape=partialRectangle;html=1;whiteSpace=wrap;connectable=0;fillColor=none;top=1;left=1;bottom=1;right=1;align=left;spacingLeft=6;overflow=hidden;strokeColor=inherit;fontSize=16;fontFamily=Atkinson Hyperlegible;fontSource=https%3A%2F%2Ffonts.googleapis.com%2Fcss%3Ffamily%3DAtkinson%2BHyperlegible;" vertex="1" parent="T7_ayMRb7OsO0juk5p_l-48">
          <mxGeometry x="40" width="140" height="30" as="geometry">
            <mxRectangle width="140" height="30" as="alternateBounds" />
          </mxGeometry>
        </mxCell>
        <mxCell id="T7_ayMRb7OsO0juk5p_l-51" value="" style="shape=tableRow;horizontal=0;startSize=0;swimlaneHead=0;swimlaneBody=0;top=0;left=0;bottom=0;right=0;collapsible=0;dropTarget=0;fillColor=none;points=[[0,0.5],[1,0.5]];portConstraint=eastwest;strokeColor=inherit;fontSize=16;fontFamily=Atkinson Hyperlegible;fontSource=https%3A%2F%2Ffonts.googleapis.com%2Fcss%3Ffamily%3DAtkinson%2BHyperlegible;" vertex="1" parent="T7_ayMRb7OsO0juk5p_l-47">
          <mxGeometry y="60" width="180" height="30" as="geometry" />
        </mxCell>
        <mxCell id="T7_ayMRb7OsO0juk5p_l-52" value="B2" style="shape=partialRectangle;html=1;whiteSpace=wrap;connectable=0;fillColor=none;top=1;left=1;bottom=1;right=1;overflow=hidden;strokeColor=inherit;fontSize=16;fontFamily=Atkinson Hyperlegible;fontSource=https%3A%2F%2Ffonts.googleapis.com%2Fcss%3Ffamily%3DAtkinson%2BHyperlegible;" vertex="1" parent="T7_ayMRb7OsO0juk5p_l-51">
          <mxGeometry width="40" height="30" as="geometry">
            <mxRectangle width="40" height="30" as="alternateBounds" />
          </mxGeometry>
        </mxCell>
        <mxCell id="T7_ayMRb7OsO0juk5p_l-53" value="" style="shape=partialRectangle;html=1;whiteSpace=wrap;connectable=0;fillColor=none;top=1;left=1;bottom=1;right=1;align=left;spacingLeft=6;overflow=hidden;strokeColor=inherit;fontSize=16;fontFamily=Atkinson Hyperlegible;fontSource=https%3A%2F%2Ffonts.googleapis.com%2Fcss%3Ffamily%3DAtkinson%2BHyperlegible;" vertex="1" parent="T7_ayMRb7OsO0juk5p_l-51">
          <mxGeometry x="40" width="140" height="30" as="geometry">
            <mxRectangle width="140" height="30" as="alternateBounds" />
          </mxGeometry>
        </mxCell>
        <mxCell id="T7_ayMRb7OsO0juk5p_l-69" style="shape=tableRow;horizontal=0;startSize=0;swimlaneHead=0;swimlaneBody=0;top=0;left=0;bottom=0;right=0;collapsible=0;dropTarget=0;fillColor=none;points=[[0,0.5],[1,0.5]];portConstraint=eastwest;strokeColor=inherit;fontSize=16;fontFamily=Atkinson Hyperlegible;fontSource=https%3A%2F%2Ffonts.googleapis.com%2Fcss%3Ffamily%3DAtkinson%2BHyperlegible;" vertex="1" parent="T7_ayMRb7OsO0juk5p_l-47">
          <mxGeometry y="90" width="180" height="30" as="geometry" />
        </mxCell>
        <mxCell id="T7_ayMRb7OsO0juk5p_l-70" value="Type" style="shape=partialRectangle;html=1;whiteSpace=wrap;connectable=0;fillColor=none;top=1;left=1;bottom=1;right=1;overflow=hidden;strokeColor=inherit;fontSize=16;fontFamily=Atkinson Hyperlegible;fontSource=https%3A%2F%2Ffonts.googleapis.com%2Fcss%3Ffamily%3DAtkinson%2BHyperlegible;" vertex="1" parent="T7_ayMRb7OsO0juk5p_l-69">
          <mxGeometry width="40" height="30" as="geometry">
            <mxRectangle width="40" height="30" as="alternateBounds" />
          </mxGeometry>
        </mxCell>
        <mxCell id="T7_ayMRb7OsO0juk5p_l-71" value="" style="shape=partialRectangle;html=1;whiteSpace=wrap;connectable=0;fillColor=none;top=1;left=1;bottom=1;right=1;align=left;spacingLeft=6;overflow=hidden;strokeColor=inherit;fontSize=16;fontFamily=Atkinson Hyperlegible;fontSource=https%3A%2F%2Ffonts.googleapis.com%2Fcss%3Ffamily%3DAtkinson%2BHyperlegible;" vertex="1" parent="T7_ayMRb7OsO0juk5p_l-69">
          <mxGeometry x="40" width="140" height="30" as="geometry">
            <mxRectangle width="140" height="30" as="alternateBounds" />
          </mxGeometry>
        </mxCell>
        <mxCell id="T7_ayMRb7OsO0juk5p_l-74" value="Dependent Variable" style="shape=table;startSize=30;container=1;collapsible=0;childLayout=tableLayout;fixedRows=1;rowLines=0;fontStyle=1;strokeColor=#82b366;fontSize=16;fillColor=#d5e8d4;fontFamily=Atkinson Hyperlegible;fontSource=https%3A%2F%2Ffonts.googleapis.com%2Fcss%3Ffamily%3DAtkinson%2BHyperlegible;" vertex="1" parent="1">
          <mxGeometry x="20" y="890" width="670" height="120" as="geometry" />
        </mxCell>
        <mxCell id="T7_ayMRb7OsO0juk5p_l-75" value="" style="shape=tableRow;horizontal=0;startSize=0;swimlaneHead=0;swimlaneBody=0;top=1;left=1;bottom=1;right=1;collapsible=0;dropTarget=0;fillColor=none;points=[[0,0.5],[1,0.5]];portConstraint=eastwest;strokeColor=inherit;fontSize=16;fontFamily=Atkinson Hyperlegible;fontSource=https%3A%2F%2Ffonts.googleapis.com%2Fcss%3Ffamily%3DAtkinson%2BHyperlegible;" vertex="1" parent="T7_ayMRb7OsO0juk5p_l-74">
          <mxGeometry y="30" width="670" height="30" as="geometry" />
        </mxCell>
        <mxCell id="T7_ayMRb7OsO0juk5p_l-76" value="&lt;b&gt;Name&lt;/b&gt;" style="shape=partialRectangle;html=1;whiteSpace=wrap;connectable=0;fillColor=none;top=0;left=0;bottom=0;right=0;overflow=hidden;pointerEvents=1;strokeColor=inherit;fontSize=16;fontFamily=Atkinson Hyperlegible;fontSource=https%3A%2F%2Ffonts.googleapis.com%2Fcss%3Ffamily%3DAtkinson%2BHyperlegible;" vertex="1" parent="T7_ayMRb7OsO0juk5p_l-75">
          <mxGeometry width="149" height="30" as="geometry">
            <mxRectangle width="149" height="30" as="alternateBounds" />
          </mxGeometry>
        </mxCell>
        <mxCell id="T7_ayMRb7OsO0juk5p_l-77" value="" style="shape=partialRectangle;html=1;whiteSpace=wrap;connectable=0;fillColor=none;top=0;left=0;bottom=0;right=0;align=left;spacingLeft=6;overflow=hidden;strokeColor=inherit;fontSize=16;fontFamily=Atkinson Hyperlegible;fontSource=https%3A%2F%2Ffonts.googleapis.com%2Fcss%3Ffamily%3DAtkinson%2BHyperlegible;" vertex="1" parent="T7_ayMRb7OsO0juk5p_l-75">
          <mxGeometry x="149" width="521" height="30" as="geometry">
            <mxRectangle width="521" height="30" as="alternateBounds" />
          </mxGeometry>
        </mxCell>
        <mxCell id="T7_ayMRb7OsO0juk5p_l-78" value="" style="shape=tableRow;horizontal=0;startSize=0;swimlaneHead=0;swimlaneBody=0;top=1;left=1;bottom=1;right=1;collapsible=0;dropTarget=0;fillColor=none;points=[[0,0.5],[1,0.5]];portConstraint=eastwest;strokeColor=inherit;fontSize=16;fontFamily=Atkinson Hyperlegible;fontSource=https%3A%2F%2Ffonts.googleapis.com%2Fcss%3Ffamily%3DAtkinson%2BHyperlegible;" vertex="1" parent="T7_ayMRb7OsO0juk5p_l-74">
          <mxGeometry y="60" width="670" height="30" as="geometry" />
        </mxCell>
        <mxCell id="T7_ayMRb7OsO0juk5p_l-79" value="&lt;b&gt;Measurement&lt;/b&gt;" style="shape=partialRectangle;html=1;whiteSpace=wrap;connectable=0;fillColor=none;top=0;left=0;bottom=0;right=0;overflow=hidden;strokeColor=inherit;fontSize=16;fontFamily=Atkinson Hyperlegible;fontSource=https%3A%2F%2Ffonts.googleapis.com%2Fcss%3Ffamily%3DAtkinson%2BHyperlegible;" vertex="1" parent="T7_ayMRb7OsO0juk5p_l-78">
          <mxGeometry width="149" height="30" as="geometry">
            <mxRectangle width="149" height="30" as="alternateBounds" />
          </mxGeometry>
        </mxCell>
        <mxCell id="T7_ayMRb7OsO0juk5p_l-80" value="" style="shape=partialRectangle;html=1;whiteSpace=wrap;connectable=0;fillColor=none;top=0;left=0;bottom=0;right=0;align=left;spacingLeft=6;overflow=hidden;strokeColor=inherit;fontSize=16;fontFamily=Atkinson Hyperlegible;fontSource=https%3A%2F%2Ffonts.googleapis.com%2Fcss%3Ffamily%3DAtkinson%2BHyperlegible;" vertex="1" parent="T7_ayMRb7OsO0juk5p_l-78">
          <mxGeometry x="149" width="521" height="30" as="geometry">
            <mxRectangle width="521" height="30" as="alternateBounds" />
          </mxGeometry>
        </mxCell>
        <mxCell id="T7_ayMRb7OsO0juk5p_l-81" value="" style="shape=tableRow;horizontal=0;startSize=0;swimlaneHead=0;swimlaneBody=0;top=1;left=1;bottom=1;right=1;collapsible=0;dropTarget=0;fillColor=none;points=[[0,0.5],[1,0.5]];portConstraint=eastwest;strokeColor=inherit;fontSize=16;fontFamily=Atkinson Hyperlegible;fontSource=https%3A%2F%2Ffonts.googleapis.com%2Fcss%3Ffamily%3DAtkinson%2BHyperlegible;" vertex="1" parent="T7_ayMRb7OsO0juk5p_l-74">
          <mxGeometry y="90" width="670" height="30" as="geometry" />
        </mxCell>
        <mxCell id="T7_ayMRb7OsO0juk5p_l-82" value="&lt;b&gt;Type&amp;nbsp;&lt;/b&gt;" style="shape=partialRectangle;html=1;whiteSpace=wrap;connectable=0;fillColor=none;top=0;left=0;bottom=0;right=0;overflow=hidden;strokeColor=inherit;fontSize=16;fontFamily=Atkinson Hyperlegible;fontSource=https%3A%2F%2Ffonts.googleapis.com%2Fcss%3Ffamily%3DAtkinson%2BHyperlegible;" vertex="1" parent="T7_ayMRb7OsO0juk5p_l-81">
          <mxGeometry width="149" height="30" as="geometry">
            <mxRectangle width="149" height="30" as="alternateBounds" />
          </mxGeometry>
        </mxCell>
        <mxCell id="T7_ayMRb7OsO0juk5p_l-83" value="" style="shape=partialRectangle;html=1;whiteSpace=wrap;connectable=0;fillColor=none;top=0;left=0;bottom=0;right=0;align=left;spacingLeft=6;overflow=hidden;strokeColor=inherit;fontSize=16;fontFamily=Atkinson Hyperlegible;fontSource=https%3A%2F%2Ffonts.googleapis.com%2Fcss%3Ffamily%3DAtkinson%2BHyperlegible;" vertex="1" parent="T7_ayMRb7OsO0juk5p_l-81">
          <mxGeometry x="149" width="521" height="30" as="geometry">
            <mxRectangle width="521" height="30" as="alternateBounds" />
          </mxGeometry>
        </mxCell>
        <mxCell id="T7_ayMRb7OsO0juk5p_l-84" value="This is my design" style="shape=table;startSize=30;container=1;collapsible=0;childLayout=tableLayout;fixedRows=1;rowLines=0;fontStyle=1;strokeColor=#d79b00;fontSize=16;fillColor=#ffe6cc;fontFamily=Atkinson Hyperlegible;fontSource=https%3A%2F%2Ffonts.googleapis.com%2Fcss%3Ffamily%3DAtkinson%2BHyperlegible;" vertex="1" parent="1">
          <mxGeometry x="710" y="620" width="220" height="120" as="geometry" />
        </mxCell>
        <mxCell id="T7_ayMRb7OsO0juk5p_l-85" value="" style="shape=tableRow;horizontal=0;startSize=0;swimlaneHead=0;swimlaneBody=0;top=1;left=1;bottom=1;right=1;collapsible=0;dropTarget=0;fillColor=none;points=[[0,0.5],[1,0.5]];portConstraint=eastwest;strokeColor=inherit;fontSize=16;fontFamily=Atkinson Hyperlegible;fontSource=https%3A%2F%2Ffonts.googleapis.com%2Fcss%3Ffamily%3DAtkinson%2BHyperlegible;" vertex="1" parent="T7_ayMRb7OsO0juk5p_l-84">
          <mxGeometry y="30" width="220" height="30" as="geometry" />
        </mxCell>
        <mxCell id="T7_ayMRb7OsO0juk5p_l-86" value="" style="shape=partialRectangle;html=1;whiteSpace=wrap;connectable=0;fillColor=none;top=0;left=0;bottom=0;right=0;overflow=hidden;pointerEvents=1;strokeColor=inherit;fontSize=16;fontFamily=Atkinson Hyperlegible;fontSource=https%3A%2F%2Ffonts.googleapis.com%2Fcss%3Ffamily%3DAtkinson%2BHyperlegible;" vertex="1" parent="T7_ayMRb7OsO0juk5p_l-85">
          <mxGeometry width="49" height="30" as="geometry">
            <mxRectangle width="49" height="30" as="alternateBounds" />
          </mxGeometry>
        </mxCell>
        <mxCell id="T7_ayMRb7OsO0juk5p_l-87" value="Between Groups" style="shape=partialRectangle;html=1;whiteSpace=wrap;connectable=0;fillColor=none;top=0;left=0;bottom=0;right=0;align=left;spacingLeft=6;overflow=hidden;strokeColor=inherit;fontSize=16;fontFamily=Atkinson Hyperlegible;fontSource=https%3A%2F%2Ffonts.googleapis.com%2Fcss%3Ffamily%3DAtkinson%2BHyperlegible;" vertex="1" parent="T7_ayMRb7OsO0juk5p_l-85">
          <mxGeometry x="49" width="171" height="30" as="geometry">
            <mxRectangle width="171" height="30" as="alternateBounds" />
          </mxGeometry>
        </mxCell>
        <mxCell id="T7_ayMRb7OsO0juk5p_l-88" value="" style="shape=tableRow;horizontal=0;startSize=0;swimlaneHead=0;swimlaneBody=0;top=1;left=1;bottom=1;right=1;collapsible=0;dropTarget=0;fillColor=none;points=[[0,0.5],[1,0.5]];portConstraint=eastwest;strokeColor=inherit;fontSize=16;fontFamily=Atkinson Hyperlegible;fontSource=https%3A%2F%2Ffonts.googleapis.com%2Fcss%3Ffamily%3DAtkinson%2BHyperlegible;" vertex="1" parent="T7_ayMRb7OsO0juk5p_l-84">
          <mxGeometry y="60" width="220" height="30" as="geometry" />
        </mxCell>
        <mxCell id="T7_ayMRb7OsO0juk5p_l-89" value="" style="shape=partialRectangle;html=1;whiteSpace=wrap;connectable=0;fillColor=none;top=0;left=0;bottom=0;right=0;overflow=hidden;strokeColor=inherit;fontSize=16;fontFamily=Atkinson Hyperlegible;fontSource=https%3A%2F%2Ffonts.googleapis.com%2Fcss%3Ffamily%3DAtkinson%2BHyperlegible;" vertex="1" parent="T7_ayMRb7OsO0juk5p_l-88">
          <mxGeometry width="49" height="30" as="geometry">
            <mxRectangle width="49" height="30" as="alternateBounds" />
          </mxGeometry>
        </mxCell>
        <mxCell id="T7_ayMRb7OsO0juk5p_l-90" value="Repeated Measures" style="shape=partialRectangle;html=1;whiteSpace=wrap;connectable=0;fillColor=none;top=0;left=0;bottom=0;right=0;align=left;spacingLeft=6;overflow=hidden;strokeColor=inherit;fontSize=16;fontFamily=Atkinson Hyperlegible;fontSource=https%3A%2F%2Ffonts.googleapis.com%2Fcss%3Ffamily%3DAtkinson%2BHyperlegible;" vertex="1" parent="T7_ayMRb7OsO0juk5p_l-88">
          <mxGeometry x="49" width="171" height="30" as="geometry">
            <mxRectangle width="171" height="30" as="alternateBounds" />
          </mxGeometry>
        </mxCell>
        <mxCell id="T7_ayMRb7OsO0juk5p_l-91" value="" style="shape=tableRow;horizontal=0;startSize=0;swimlaneHead=0;swimlaneBody=0;top=0;left=0;bottom=0;right=0;collapsible=0;dropTarget=0;fillColor=none;points=[[0,0.5],[1,0.5]];portConstraint=eastwest;strokeColor=inherit;fontSize=16;fontFamily=Atkinson Hyperlegible;fontSource=https%3A%2F%2Ffonts.googleapis.com%2Fcss%3Ffamily%3DAtkinson%2BHyperlegible;" vertex="1" parent="T7_ayMRb7OsO0juk5p_l-84">
          <mxGeometry y="90" width="220" height="30" as="geometry" />
        </mxCell>
        <mxCell id="T7_ayMRb7OsO0juk5p_l-92" value="" style="shape=partialRectangle;html=1;whiteSpace=wrap;connectable=0;fillColor=none;top=0;left=0;bottom=0;right=0;overflow=hidden;strokeColor=inherit;fontSize=16;fontFamily=Atkinson Hyperlegible;fontSource=https%3A%2F%2Ffonts.googleapis.com%2Fcss%3Ffamily%3DAtkinson%2BHyperlegible;" vertex="1" parent="T7_ayMRb7OsO0juk5p_l-91">
          <mxGeometry width="49" height="30" as="geometry">
            <mxRectangle width="49" height="30" as="alternateBounds" />
          </mxGeometry>
        </mxCell>
        <mxCell id="T7_ayMRb7OsO0juk5p_l-93" value="Mixed&amp;nbsp;" style="shape=partialRectangle;html=1;whiteSpace=wrap;connectable=0;fillColor=none;top=0;left=0;bottom=0;right=0;align=left;spacingLeft=6;overflow=hidden;strokeColor=inherit;fontSize=16;fontFamily=Atkinson Hyperlegible;fontSource=https%3A%2F%2Ffonts.googleapis.com%2Fcss%3Ffamily%3DAtkinson%2BHyperlegible;" vertex="1" parent="T7_ayMRb7OsO0juk5p_l-91">
          <mxGeometry x="49" width="171" height="30" as="geometry">
            <mxRectangle width="171" height="30" as="alternateBounds" />
          </mxGeometry>
        </mxCell>
        <mxCell id="T7_ayMRb7OsO0juk5p_l-94" value="Hypotheses" style="shape=table;startSize=30;container=1;collapsible=0;childLayout=tableLayout;fixedRows=1;rowLines=0;fontStyle=0;strokeColor=#b85450;fontSize=16;fillColor=#f8cecc;fontFamily=Atkinson Hyperlegible;fontSource=https%3A%2F%2Ffonts.googleapis.com%2Fcss%3Ffamily%3DAtkinson%2BHyperlegible;" vertex="1" parent="1">
          <mxGeometry x="20" y="1020" width="670" height="120" as="geometry" />
        </mxCell>
        <mxCell id="T7_ayMRb7OsO0juk5p_l-95" value="" style="shape=tableRow;horizontal=0;startSize=0;swimlaneHead=0;swimlaneBody=0;top=1;left=1;bottom=1;right=1;collapsible=0;dropTarget=0;fillColor=none;points=[[0,0.5],[1,0.5]];portConstraint=eastwest;strokeColor=inherit;fontSize=16;fontFamily=Atkinson Hyperlegible;fontSource=https%3A%2F%2Ffonts.googleapis.com%2Fcss%3Ffamily%3DAtkinson%2BHyperlegible;" vertex="1" parent="T7_ayMRb7OsO0juk5p_l-94">
          <mxGeometry y="30" width="670" height="30" as="geometry" />
        </mxCell>
        <mxCell id="T7_ayMRb7OsO0juk5p_l-96" value="&lt;b&gt;H1&lt;/b&gt;" style="shape=partialRectangle;html=1;whiteSpace=wrap;connectable=0;fillColor=none;top=0;left=0;bottom=0;right=0;overflow=hidden;pointerEvents=1;strokeColor=inherit;fontSize=16;fontFamily=Atkinson Hyperlegible;fontSource=https%3A%2F%2Ffonts.googleapis.com%2Fcss%3Ffamily%3DAtkinson%2BHyperlegible;" vertex="1" parent="T7_ayMRb7OsO0juk5p_l-95">
          <mxGeometry width="149" height="30" as="geometry">
            <mxRectangle width="149" height="30" as="alternateBounds" />
          </mxGeometry>
        </mxCell>
        <mxCell id="T7_ayMRb7OsO0juk5p_l-97" value="" style="shape=partialRectangle;html=1;whiteSpace=wrap;connectable=0;fillColor=none;top=0;left=0;bottom=0;right=0;align=left;spacingLeft=6;overflow=hidden;strokeColor=inherit;fontSize=16;fontFamily=Atkinson Hyperlegible;fontSource=https%3A%2F%2Ffonts.googleapis.com%2Fcss%3Ffamily%3DAtkinson%2BHyperlegible;" vertex="1" parent="T7_ayMRb7OsO0juk5p_l-95">
          <mxGeometry x="149" width="521" height="30" as="geometry">
            <mxRectangle width="521" height="30" as="alternateBounds" />
          </mxGeometry>
        </mxCell>
        <mxCell id="T7_ayMRb7OsO0juk5p_l-98" value="" style="shape=tableRow;horizontal=0;startSize=0;swimlaneHead=0;swimlaneBody=0;top=1;left=1;bottom=1;right=1;collapsible=0;dropTarget=0;fillColor=none;points=[[0,0.5],[1,0.5]];portConstraint=eastwest;strokeColor=inherit;fontSize=16;fontFamily=Atkinson Hyperlegible;fontSource=https%3A%2F%2Ffonts.googleapis.com%2Fcss%3Ffamily%3DAtkinson%2BHyperlegible;" vertex="1" parent="T7_ayMRb7OsO0juk5p_l-94">
          <mxGeometry y="60" width="670" height="30" as="geometry" />
        </mxCell>
        <mxCell id="T7_ayMRb7OsO0juk5p_l-99" value="&lt;b&gt;H2&lt;/b&gt;" style="shape=partialRectangle;html=1;whiteSpace=wrap;connectable=0;fillColor=none;top=0;left=0;bottom=0;right=0;overflow=hidden;strokeColor=inherit;fontSize=16;fontFamily=Atkinson Hyperlegible;fontSource=https%3A%2F%2Ffonts.googleapis.com%2Fcss%3Ffamily%3DAtkinson%2BHyperlegible;" vertex="1" parent="T7_ayMRb7OsO0juk5p_l-98">
          <mxGeometry width="149" height="30" as="geometry">
            <mxRectangle width="149" height="30" as="alternateBounds" />
          </mxGeometry>
        </mxCell>
        <mxCell id="T7_ayMRb7OsO0juk5p_l-100" value="" style="shape=partialRectangle;html=1;whiteSpace=wrap;connectable=0;fillColor=none;top=0;left=0;bottom=0;right=0;align=left;spacingLeft=6;overflow=hidden;strokeColor=inherit;fontSize=16;fontFamily=Atkinson Hyperlegible;fontSource=https%3A%2F%2Ffonts.googleapis.com%2Fcss%3Ffamily%3DAtkinson%2BHyperlegible;" vertex="1" parent="T7_ayMRb7OsO0juk5p_l-98">
          <mxGeometry x="149" width="521" height="30" as="geometry">
            <mxRectangle width="521" height="30" as="alternateBounds" />
          </mxGeometry>
        </mxCell>
        <mxCell id="T7_ayMRb7OsO0juk5p_l-101" value="" style="shape=tableRow;horizontal=0;startSize=0;swimlaneHead=0;swimlaneBody=0;top=1;left=1;bottom=1;right=1;collapsible=0;dropTarget=0;fillColor=none;points=[[0,0.5],[1,0.5]];portConstraint=eastwest;strokeColor=inherit;fontSize=16;fontFamily=Atkinson Hyperlegible;fontSource=https%3A%2F%2Ffonts.googleapis.com%2Fcss%3Ffamily%3DAtkinson%2BHyperlegible;" vertex="1" parent="T7_ayMRb7OsO0juk5p_l-94">
          <mxGeometry y="90" width="670" height="30" as="geometry" />
        </mxCell>
        <mxCell id="T7_ayMRb7OsO0juk5p_l-102" value="&lt;b&gt;H3&lt;/b&gt;" style="shape=partialRectangle;html=1;whiteSpace=wrap;connectable=0;fillColor=none;top=0;left=0;bottom=0;right=0;overflow=hidden;strokeColor=inherit;fontSize=16;fontFamily=Atkinson Hyperlegible;fontSource=https%3A%2F%2Ffonts.googleapis.com%2Fcss%3Ffamily%3DAtkinson%2BHyperlegible;" vertex="1" parent="T7_ayMRb7OsO0juk5p_l-101">
          <mxGeometry width="149" height="30" as="geometry">
            <mxRectangle width="149" height="30" as="alternateBounds" />
          </mxGeometry>
        </mxCell>
        <mxCell id="T7_ayMRb7OsO0juk5p_l-103" value="" style="shape=partialRectangle;html=1;whiteSpace=wrap;connectable=0;fillColor=none;top=0;left=0;bottom=0;right=0;align=left;spacingLeft=6;overflow=hidden;strokeColor=inherit;fontSize=16;fontFamily=Atkinson Hyperlegible;fontSource=https%3A%2F%2Ffonts.googleapis.com%2Fcss%3Ffamily%3DAtkinson%2BHyperlegible;" vertex="1" parent="T7_ayMRb7OsO0juk5p_l-101">
          <mxGeometry x="149" width="521" height="30" as="geometry">
            <mxRectangle width="521" height="30" as="alternateBounds" />
          </mxGeometry>
        </mxCell>
        <mxCell id="T7_ayMRb7OsO0juk5p_l-104" value="Effect Sizes" style="shape=table;startSize=30;container=1;collapsible=0;childLayout=tableLayout;fixedRows=1;rowLines=0;fontStyle=1;strokeColor=#666666;fontSize=16;fillColor=#f5f5f5;fontColor=#333333;fontFamily=Atkinson Hyperlegible;fontSource=https%3A%2F%2Ffonts.googleapis.com%2Fcss%3Ffamily%3DAtkinson%2BHyperlegible;" vertex="1" parent="1">
          <mxGeometry x="710" y="750" width="220" height="120" as="geometry" />
        </mxCell>
        <mxCell id="T7_ayMRb7OsO0juk5p_l-105" value="" style="shape=tableRow;horizontal=0;startSize=0;swimlaneHead=0;swimlaneBody=0;top=1;left=1;bottom=1;right=1;collapsible=0;dropTarget=0;fillColor=none;points=[[0,0.5],[1,0.5]];portConstraint=eastwest;strokeColor=inherit;fontSize=16;fontFamily=Atkinson Hyperlegible;fontSource=https%3A%2F%2Ffonts.googleapis.com%2Fcss%3Ffamily%3DAtkinson%2BHyperlegible;" vertex="1" parent="T7_ayMRb7OsO0juk5p_l-104">
          <mxGeometry y="30" width="220" height="30" as="geometry" />
        </mxCell>
        <mxCell id="T7_ayMRb7OsO0juk5p_l-106" value="&lt;b&gt;IV(A)&lt;/b&gt;" style="shape=partialRectangle;html=1;whiteSpace=wrap;connectable=0;fillColor=none;top=0;left=0;bottom=0;right=0;overflow=hidden;pointerEvents=1;strokeColor=inherit;fontSize=16;fontFamily=Atkinson Hyperlegible;fontSource=https%3A%2F%2Ffonts.googleapis.com%2Fcss%3Ffamily%3DAtkinson%2BHyperlegible;" vertex="1" parent="T7_ayMRb7OsO0juk5p_l-105">
          <mxGeometry width="49" height="30" as="geometry">
            <mxRectangle width="49" height="30" as="alternateBounds" />
          </mxGeometry>
        </mxCell>
        <mxCell id="T7_ayMRb7OsO0juk5p_l-107" value="" style="shape=partialRectangle;html=1;whiteSpace=wrap;connectable=0;fillColor=none;top=0;left=0;bottom=0;right=0;align=left;spacingLeft=6;overflow=hidden;strokeColor=inherit;fontSize=16;fontFamily=Atkinson Hyperlegible;fontSource=https%3A%2F%2Ffonts.googleapis.com%2Fcss%3Ffamily%3DAtkinson%2BHyperlegible;" vertex="1" parent="T7_ayMRb7OsO0juk5p_l-105">
          <mxGeometry x="49" width="171" height="30" as="geometry">
            <mxRectangle width="171" height="30" as="alternateBounds" />
          </mxGeometry>
        </mxCell>
        <mxCell id="T7_ayMRb7OsO0juk5p_l-108" value="" style="shape=tableRow;horizontal=0;startSize=0;swimlaneHead=0;swimlaneBody=0;top=1;left=1;bottom=1;right=1;collapsible=0;dropTarget=0;fillColor=none;points=[[0,0.5],[1,0.5]];portConstraint=eastwest;strokeColor=inherit;fontSize=16;fontFamily=Atkinson Hyperlegible;fontSource=https%3A%2F%2Ffonts.googleapis.com%2Fcss%3Ffamily%3DAtkinson%2BHyperlegible;" vertex="1" parent="T7_ayMRb7OsO0juk5p_l-104">
          <mxGeometry y="60" width="220" height="30" as="geometry" />
        </mxCell>
        <mxCell id="T7_ayMRb7OsO0juk5p_l-109" value="&lt;b&gt;IV(B)&lt;/b&gt;" style="shape=partialRectangle;html=1;whiteSpace=wrap;connectable=0;fillColor=none;top=0;left=0;bottom=0;right=0;overflow=hidden;strokeColor=inherit;fontSize=16;fontFamily=Atkinson Hyperlegible;fontSource=https%3A%2F%2Ffonts.googleapis.com%2Fcss%3Ffamily%3DAtkinson%2BHyperlegible;" vertex="1" parent="T7_ayMRb7OsO0juk5p_l-108">
          <mxGeometry width="49" height="30" as="geometry">
            <mxRectangle width="49" height="30" as="alternateBounds" />
          </mxGeometry>
        </mxCell>
        <mxCell id="T7_ayMRb7OsO0juk5p_l-110" value="" style="shape=partialRectangle;html=1;whiteSpace=wrap;connectable=0;fillColor=none;top=0;left=0;bottom=0;right=0;align=left;spacingLeft=6;overflow=hidden;strokeColor=inherit;fontSize=16;fontFamily=Atkinson Hyperlegible;fontSource=https%3A%2F%2Ffonts.googleapis.com%2Fcss%3Ffamily%3DAtkinson%2BHyperlegible;" vertex="1" parent="T7_ayMRb7OsO0juk5p_l-108">
          <mxGeometry x="49" width="171" height="30" as="geometry">
            <mxRectangle width="171" height="30" as="alternateBounds" />
          </mxGeometry>
        </mxCell>
        <mxCell id="T7_ayMRb7OsO0juk5p_l-111" value="" style="shape=tableRow;horizontal=0;startSize=0;swimlaneHead=0;swimlaneBody=0;top=1;left=1;bottom=1;right=1;collapsible=0;dropTarget=0;fillColor=none;points=[[0,0.5],[1,0.5]];portConstraint=eastwest;strokeColor=inherit;fontSize=16;fontFamily=Atkinson Hyperlegible;fontSource=https%3A%2F%2Ffonts.googleapis.com%2Fcss%3Ffamily%3DAtkinson%2BHyperlegible;" vertex="1" parent="T7_ayMRb7OsO0juk5p_l-104">
          <mxGeometry y="90" width="220" height="30" as="geometry" />
        </mxCell>
        <mxCell id="T7_ayMRb7OsO0juk5p_l-112" value="A*B" style="shape=partialRectangle;html=1;whiteSpace=wrap;connectable=0;fillColor=none;top=0;left=0;bottom=0;right=0;overflow=hidden;strokeColor=inherit;fontSize=16;fontFamily=Atkinson Hyperlegible;fontSource=https%3A%2F%2Ffonts.googleapis.com%2Fcss%3Ffamily%3DAtkinson%2BHyperlegible;" vertex="1" parent="T7_ayMRb7OsO0juk5p_l-111">
          <mxGeometry width="49" height="30" as="geometry">
            <mxRectangle width="49" height="30" as="alternateBounds" />
          </mxGeometry>
        </mxCell>
        <mxCell id="T7_ayMRb7OsO0juk5p_l-113" value="" style="shape=partialRectangle;html=1;whiteSpace=wrap;connectable=0;fillColor=none;top=0;left=0;bottom=0;right=0;align=left;spacingLeft=6;overflow=hidden;strokeColor=inherit;fontSize=16;fontFamily=Atkinson Hyperlegible;fontSource=https%3A%2F%2Ffonts.googleapis.com%2Fcss%3Ffamily%3DAtkinson%2BHyperlegible;" vertex="1" parent="T7_ayMRb7OsO0juk5p_l-111">
          <mxGeometry x="49" width="171" height="30" as="geometry">
            <mxRectangle width="171" height="30" as="alternateBounds" />
          </mxGeometry>
        </mxCell>
        <mxCell id="T7_ayMRb7OsO0juk5p_l-114" value="Sample Size Required" style="shape=table;startSize=30;container=1;collapsible=0;childLayout=tableLayout;fixedRows=1;rowLines=0;fontStyle=1;strokeColor=#0e8088;fontSize=16;fillColor=#b0e3e6;fontFamily=Atkinson Hyperlegible;fontSource=https%3A%2F%2Ffonts.googleapis.com%2Fcss%3Ffamily%3DAtkinson%2BHyperlegible;" vertex="1" parent="1">
          <mxGeometry x="710" y="890" width="220" height="120" as="geometry" />
        </mxCell>
        <mxCell id="T7_ayMRb7OsO0juk5p_l-115" value="" style="shape=tableRow;horizontal=0;startSize=0;swimlaneHead=0;swimlaneBody=0;top=1;left=1;bottom=1;right=1;collapsible=0;dropTarget=0;fillColor=none;points=[[0,0.5],[1,0.5]];portConstraint=eastwest;strokeColor=inherit;fontSize=16;fontFamily=Atkinson Hyperlegible;fontSource=https%3A%2F%2Ffonts.googleapis.com%2Fcss%3Ffamily%3DAtkinson%2BHyperlegible;" vertex="1" parent="T7_ayMRb7OsO0juk5p_l-114">
          <mxGeometry y="30" width="220" height="30" as="geometry" />
        </mxCell>
        <mxCell id="T7_ayMRb7OsO0juk5p_l-116" value="&lt;b&gt;IV(A)&lt;/b&gt;" style="shape=partialRectangle;html=1;whiteSpace=wrap;connectable=0;fillColor=none;top=0;left=0;bottom=0;right=0;overflow=hidden;pointerEvents=1;strokeColor=inherit;fontSize=16;fontFamily=Atkinson Hyperlegible;fontSource=https%3A%2F%2Ffonts.googleapis.com%2Fcss%3Ffamily%3DAtkinson%2BHyperlegible;" vertex="1" parent="T7_ayMRb7OsO0juk5p_l-115">
          <mxGeometry width="49" height="30" as="geometry">
            <mxRectangle width="49" height="30" as="alternateBounds" />
          </mxGeometry>
        </mxCell>
        <mxCell id="T7_ayMRb7OsO0juk5p_l-117" value="" style="shape=partialRectangle;html=1;whiteSpace=wrap;connectable=0;fillColor=none;top=0;left=0;bottom=0;right=0;align=left;spacingLeft=6;overflow=hidden;strokeColor=inherit;fontSize=16;fontFamily=Atkinson Hyperlegible;fontSource=https%3A%2F%2Ffonts.googleapis.com%2Fcss%3Ffamily%3DAtkinson%2BHyperlegible;" vertex="1" parent="T7_ayMRb7OsO0juk5p_l-115">
          <mxGeometry x="49" width="171" height="30" as="geometry">
            <mxRectangle width="171" height="30" as="alternateBounds" />
          </mxGeometry>
        </mxCell>
        <mxCell id="T7_ayMRb7OsO0juk5p_l-118" value="" style="shape=tableRow;horizontal=0;startSize=0;swimlaneHead=0;swimlaneBody=0;top=1;left=1;bottom=1;right=1;collapsible=0;dropTarget=0;fillColor=none;points=[[0,0.5],[1,0.5]];portConstraint=eastwest;strokeColor=inherit;fontSize=16;fontFamily=Atkinson Hyperlegible;fontSource=https%3A%2F%2Ffonts.googleapis.com%2Fcss%3Ffamily%3DAtkinson%2BHyperlegible;" vertex="1" parent="T7_ayMRb7OsO0juk5p_l-114">
          <mxGeometry y="60" width="220" height="30" as="geometry" />
        </mxCell>
        <mxCell id="T7_ayMRb7OsO0juk5p_l-119" value="&lt;b&gt;IV(B)&lt;/b&gt;" style="shape=partialRectangle;html=1;whiteSpace=wrap;connectable=0;fillColor=none;top=0;left=0;bottom=0;right=0;overflow=hidden;strokeColor=inherit;fontSize=16;fontFamily=Atkinson Hyperlegible;fontSource=https%3A%2F%2Ffonts.googleapis.com%2Fcss%3Ffamily%3DAtkinson%2BHyperlegible;" vertex="1" parent="T7_ayMRb7OsO0juk5p_l-118">
          <mxGeometry width="49" height="30" as="geometry">
            <mxRectangle width="49" height="30" as="alternateBounds" />
          </mxGeometry>
        </mxCell>
        <mxCell id="T7_ayMRb7OsO0juk5p_l-120" value="" style="shape=partialRectangle;html=1;whiteSpace=wrap;connectable=0;fillColor=none;top=0;left=0;bottom=0;right=0;align=left;spacingLeft=6;overflow=hidden;strokeColor=inherit;fontSize=16;fontFamily=Atkinson Hyperlegible;fontSource=https%3A%2F%2Ffonts.googleapis.com%2Fcss%3Ffamily%3DAtkinson%2BHyperlegible;" vertex="1" parent="T7_ayMRb7OsO0juk5p_l-118">
          <mxGeometry x="49" width="171" height="30" as="geometry">
            <mxRectangle width="171" height="30" as="alternateBounds" />
          </mxGeometry>
        </mxCell>
        <mxCell id="T7_ayMRb7OsO0juk5p_l-121" value="" style="shape=tableRow;horizontal=0;startSize=0;swimlaneHead=0;swimlaneBody=0;top=0;left=0;bottom=0;right=0;collapsible=0;dropTarget=0;fillColor=none;points=[[0,0.5],[1,0.5]];portConstraint=eastwest;strokeColor=inherit;fontSize=16;fontFamily=Atkinson Hyperlegible;fontSource=https%3A%2F%2Ffonts.googleapis.com%2Fcss%3Ffamily%3DAtkinson%2BHyperlegible;" vertex="1" parent="T7_ayMRb7OsO0juk5p_l-114">
          <mxGeometry y="90" width="220" height="30" as="geometry" />
        </mxCell>
        <mxCell id="T7_ayMRb7OsO0juk5p_l-122" value="&lt;b&gt;A*B&lt;/b&gt;" style="shape=partialRectangle;html=1;whiteSpace=wrap;connectable=0;fillColor=none;top=0;left=0;bottom=0;right=0;overflow=hidden;strokeColor=inherit;fontSize=16;fontFamily=Atkinson Hyperlegible;fontSource=https%3A%2F%2Ffonts.googleapis.com%2Fcss%3Ffamily%3DAtkinson%2BHyperlegible;" vertex="1" parent="T7_ayMRb7OsO0juk5p_l-121">
          <mxGeometry width="49" height="30" as="geometry">
            <mxRectangle width="49" height="30" as="alternateBounds" />
          </mxGeometry>
        </mxCell>
        <mxCell id="T7_ayMRb7OsO0juk5p_l-123" value="" style="shape=partialRectangle;html=1;whiteSpace=wrap;connectable=0;fillColor=none;top=0;left=0;bottom=0;right=0;align=left;spacingLeft=6;overflow=hidden;strokeColor=inherit;fontSize=16;fontFamily=Atkinson Hyperlegible;fontSource=https%3A%2F%2Ffonts.googleapis.com%2Fcss%3Ffamily%3DAtkinson%2BHyperlegible;" vertex="1" parent="T7_ayMRb7OsO0juk5p_l-121">
          <mxGeometry x="49" width="171" height="30" as="geometry">
            <mxRectangle width="171" height="30" as="alternateBounds" />
          </mxGeometry>
        </mxCell>
        <mxCell id="T7_ayMRb7OsO0juk5p_l-124" value="&lt;font style=&quot;font-size: 23px;&quot; data-font-src=&quot;https://fonts.googleapis.com/css?family=Atkinson+Hyperlegible&quot;&gt;Everything I will need to know about my study&lt;br&gt;&lt;br&gt;&lt;/font&gt;" style="swimlane;whiteSpace=wrap;html=1;startSize=70;fontFamily=Atkinson Hyperlegible;fontSource=https%3A%2F%2Ffonts.googleapis.com%2Fcss%3Ffamily%3DAtkinson%2BHyperlegible;" vertex="1" parent="1">
          <mxGeometry x="10" y="540" width="930" height="610" as="geometry">
            <mxRectangle x="10" y="540" width="500" height="70" as="alternateBounds" />
          </mxGeometry>
        </mxCell>
        <object label="UserGenContent" id="T7_ayMRb7OsO0juk5p_l-221">
          <mxCell style="" visible="0" parent="0" />
        </object>
        <mxCell id="T7_ayMRb7OsO0juk5p_l-222" value="The Relationship between IV(A), IV(B) and DV" style="shape=table;startSize=30;container=1;collapsible=0;childLayout=tableLayout;fixedRows=1;rowLines=0;fontStyle=0;strokeColor=#23445d;fontSize=16;fontFamily=Atkinson Hyperlegible;fontSource=https%3A%2F%2Ffonts.googleapis.com%2Fcss%3Ffamily%3DAtkinson%2BHyperlegible;fillColor=#bac8d3;" vertex="1" parent="T7_ayMRb7OsO0juk5p_l-221">
          <mxGeometry x="220" y="620" width="473" height="250" as="geometry" />
        </mxCell>
        <mxCell id="T7_ayMRb7OsO0juk5p_l-223" value="" style="shape=tableRow;horizontal=0;startSize=0;swimlaneHead=0;swimlaneBody=0;top=0;left=0;bottom=0;right=0;collapsible=0;dropTarget=0;fillColor=none;points=[[0,0.5],[1,0.5]];portConstraint=eastwest;strokeColor=inherit;fontSize=16;fontFamily=Atkinson Hyperlegible;fontSource=https%3A%2F%2Ffonts.googleapis.com%2Fcss%3Ffamily%3DAtkinson%2BHyperlegible;" vertex="1" parent="T7_ayMRb7OsO0juk5p_l-222">
          <mxGeometry y="30" width="473" height="20" as="geometry" />
        </mxCell>
        <mxCell id="T7_ayMRb7OsO0juk5p_l-224" value="" style="shape=partialRectangle;html=1;whiteSpace=wrap;connectable=0;fillColor=none;top=0;left=0;bottom=0;right=0;overflow=hidden;pointerEvents=1;strokeColor=inherit;fontSize=16;fontFamily=Atkinson Hyperlegible;fontSource=https%3A%2F%2Ffonts.googleapis.com%2Fcss%3Ffamily%3DAtkinson%2BHyperlegible;" vertex="1" parent="T7_ayMRb7OsO0juk5p_l-223">
          <mxGeometry width="53" height="20" as="geometry">
            <mxRectangle width="53" height="20" as="alternateBounds" />
          </mxGeometry>
        </mxCell>
        <mxCell id="T7_ayMRb7OsO0juk5p_l-225" style="shape=partialRectangle;html=1;whiteSpace=wrap;connectable=0;fillColor=none;top=0;left=0;bottom=0;right=0;overflow=hidden;pointerEvents=1;strokeColor=inherit;fontSize=16;fontFamily=Atkinson Hyperlegible;fontSource=https%3A%2F%2Ffonts.googleapis.com%2Fcss%3Ffamily%3DAtkinson%2BHyperlegible;" vertex="1" parent="T7_ayMRb7OsO0juk5p_l-223">
          <mxGeometry x="53" width="27" height="20" as="geometry">
            <mxRectangle width="27" height="20" as="alternateBounds" />
          </mxGeometry>
        </mxCell>
        <mxCell id="T7_ayMRb7OsO0juk5p_l-226" value="Independent Variable B" style="shape=partialRectangle;html=1;whiteSpace=wrap;connectable=0;fillColor=#fff2cc;top=0;left=0;bottom=0;right=0;align=center;spacingLeft=6;overflow=hidden;strokeColor=#d6b656;fontSize=16;rowspan=1;colspan=2;fontFamily=Atkinson Hyperlegible;fontSource=https%3A%2F%2Ffonts.googleapis.com%2Fcss%3Ffamily%3DAtkinson%2BHyperlegible;" vertex="1" parent="T7_ayMRb7OsO0juk5p_l-223">
          <mxGeometry x="80" width="393" height="20" as="geometry">
            <mxRectangle width="209" height="20" as="alternateBounds" />
          </mxGeometry>
        </mxCell>
        <mxCell id="T7_ayMRb7OsO0juk5p_l-227" style="shape=partialRectangle;html=1;whiteSpace=wrap;connectable=0;fillColor=none;top=0;left=0;bottom=0;right=0;align=left;spacingLeft=6;overflow=hidden;strokeColor=inherit;fontSize=16;" vertex="1" visible="0" parent="T7_ayMRb7OsO0juk5p_l-223">
          <mxGeometry x="289" width="184" height="20" as="geometry">
            <mxRectangle width="184" height="20" as="alternateBounds" />
          </mxGeometry>
        </mxCell>
        <mxCell id="T7_ayMRb7OsO0juk5p_l-228" style="shape=tableRow;horizontal=0;startSize=0;swimlaneHead=0;swimlaneBody=0;top=0;left=0;bottom=0;right=0;collapsible=0;dropTarget=0;fillColor=none;points=[[0,0.5],[1,0.5]];portConstraint=eastwest;strokeColor=inherit;fontSize=16;fontFamily=Atkinson Hyperlegible;fontSource=https%3A%2F%2Ffonts.googleapis.com%2Fcss%3Ffamily%3DAtkinson%2BHyperlegible;" vertex="1" parent="T7_ayMRb7OsO0juk5p_l-222">
          <mxGeometry y="50" width="473" height="20" as="geometry" />
        </mxCell>
        <mxCell id="T7_ayMRb7OsO0juk5p_l-229" style="shape=partialRectangle;html=1;whiteSpace=wrap;connectable=0;fillColor=none;top=0;left=0;bottom=0;right=0;overflow=hidden;pointerEvents=1;strokeColor=inherit;fontSize=16;fontFamily=Atkinson Hyperlegible;fontSource=https%3A%2F%2Ffonts.googleapis.com%2Fcss%3Ffamily%3DAtkinson%2BHyperlegible;" vertex="1" parent="T7_ayMRb7OsO0juk5p_l-228">
          <mxGeometry width="53" height="20" as="geometry">
            <mxRectangle width="53" height="20" as="alternateBounds" />
          </mxGeometry>
        </mxCell>
        <mxCell id="T7_ayMRb7OsO0juk5p_l-230" style="shape=partialRectangle;html=1;whiteSpace=wrap;connectable=0;fillColor=none;top=0;left=0;bottom=0;right=0;overflow=hidden;pointerEvents=1;strokeColor=inherit;fontSize=16;fontFamily=Atkinson Hyperlegible;fontSource=https%3A%2F%2Ffonts.googleapis.com%2Fcss%3Ffamily%3DAtkinson%2BHyperlegible;" vertex="1" parent="T7_ayMRb7OsO0juk5p_l-228">
          <mxGeometry x="53" width="27" height="20" as="geometry">
            <mxRectangle width="27" height="20" as="alternateBounds" />
          </mxGeometry>
        </mxCell>
        <mxCell id="T7_ayMRb7OsO0juk5p_l-231" value="B1" style="shape=partialRectangle;html=1;whiteSpace=wrap;connectable=0;fillColor=#fff2cc;top=1;left=1;bottom=1;right=1;align=center;spacingLeft=6;overflow=hidden;strokeColor=#d6b656;fontSize=16;fontFamily=Atkinson Hyperlegible;fontSource=https%3A%2F%2Ffonts.googleapis.com%2Fcss%3Ffamily%3DAtkinson%2BHyperlegible;" vertex="1" parent="T7_ayMRb7OsO0juk5p_l-228">
          <mxGeometry x="80" width="209" height="20" as="geometry">
            <mxRectangle width="209" height="20" as="alternateBounds" />
          </mxGeometry>
        </mxCell>
        <mxCell id="T7_ayMRb7OsO0juk5p_l-232" value="B2" style="shape=partialRectangle;html=1;whiteSpace=wrap;connectable=0;fillColor=#fff2cc;top=1;left=1;bottom=1;right=1;align=center;spacingLeft=6;overflow=hidden;strokeColor=#d6b656;fontSize=16;fontFamily=Atkinson Hyperlegible;fontSource=https%3A%2F%2Ffonts.googleapis.com%2Fcss%3Ffamily%3DAtkinson%2BHyperlegible;" vertex="1" parent="T7_ayMRb7OsO0juk5p_l-228">
          <mxGeometry x="289" width="184" height="20" as="geometry">
            <mxRectangle width="184" height="20" as="alternateBounds" />
          </mxGeometry>
        </mxCell>
        <mxCell id="T7_ayMRb7OsO0juk5p_l-233" value="" style="shape=tableRow;horizontal=0;startSize=0;swimlaneHead=0;swimlaneBody=0;top=0;left=0;bottom=0;right=0;collapsible=0;dropTarget=0;fillColor=none;points=[[0,0.5],[1,0.5]];portConstraint=eastwest;strokeColor=inherit;fontSize=16;fontFamily=Atkinson Hyperlegible;fontSource=https%3A%2F%2Ffonts.googleapis.com%2Fcss%3Ffamily%3DAtkinson%2BHyperlegible;" vertex="1" parent="T7_ayMRb7OsO0juk5p_l-222">
          <mxGeometry y="70" width="473" height="90" as="geometry" />
        </mxCell>
        <mxCell id="T7_ayMRb7OsO0juk5p_l-234" value="Independent Variable A" style="shape=partialRectangle;html=1;whiteSpace=wrap;connectable=0;fillColor=#dae8fc;top=1;left=1;bottom=1;right=1;overflow=hidden;strokeColor=#6c8ebf;fontSize=16;rowspan=2;colspan=1;flipV=0;flipH=1;horizontal=0;perimeterSpacing=1;fontFamily=Atkinson Hyperlegible;fontSource=https%3A%2F%2Ffonts.googleapis.com%2Fcss%3Ffamily%3DAtkinson%2BHyperlegible;" vertex="1" parent="T7_ayMRb7OsO0juk5p_l-233">
          <mxGeometry width="53" height="180" as="geometry">
            <mxRectangle width="53" height="90" as="alternateBounds" />
          </mxGeometry>
        </mxCell>
        <mxCell id="T7_ayMRb7OsO0juk5p_l-235" value="A1" style="shape=partialRectangle;html=1;whiteSpace=wrap;connectable=0;fillColor=#dae8fc;top=1;left=1;bottom=1;right=1;overflow=hidden;strokeColor=#6c8ebf;fontSize=16;flipV=0;flipH=1;horizontal=0;labelBorderColor=none;fontFamily=Atkinson Hyperlegible;fontSource=https%3A%2F%2Ffonts.googleapis.com%2Fcss%3Ffamily%3DAtkinson%2BHyperlegible;" vertex="1" parent="T7_ayMRb7OsO0juk5p_l-233">
          <mxGeometry x="53" width="27" height="90" as="geometry">
            <mxRectangle width="27" height="90" as="alternateBounds" />
          </mxGeometry>
        </mxCell>
        <mxCell id="T7_ayMRb7OsO0juk5p_l-236" value="DV for A1,B1" style="shape=partialRectangle;html=1;whiteSpace=wrap;connectable=0;fillColor=none;top=1;left=1;bottom=1;right=1;align=center;spacingLeft=6;overflow=hidden;strokeColor=inherit;fontSize=16;labelBorderColor=none;fontFamily=Atkinson Hyperlegible;fontSource=https%3A%2F%2Ffonts.googleapis.com%2Fcss%3Ffamily%3DAtkinson%2BHyperlegible;" vertex="1" parent="T7_ayMRb7OsO0juk5p_l-233">
          <mxGeometry x="80" width="209" height="90" as="geometry">
            <mxRectangle width="209" height="90" as="alternateBounds" />
          </mxGeometry>
        </mxCell>
        <mxCell id="T7_ayMRb7OsO0juk5p_l-237" value="DV for A1,B2" style="shape=partialRectangle;html=1;whiteSpace=wrap;connectable=0;fillColor=none;top=1;left=1;bottom=1;right=1;align=center;spacingLeft=6;overflow=hidden;strokeColor=inherit;fontSize=16;labelBorderColor=none;fontFamily=Atkinson Hyperlegible;fontSource=https%3A%2F%2Ffonts.googleapis.com%2Fcss%3Ffamily%3DAtkinson%2BHyperlegible;" vertex="1" parent="T7_ayMRb7OsO0juk5p_l-233">
          <mxGeometry x="289" width="184" height="90" as="geometry">
            <mxRectangle width="184" height="90" as="alternateBounds" />
          </mxGeometry>
        </mxCell>
        <mxCell id="T7_ayMRb7OsO0juk5p_l-238" value="" style="shape=tableRow;horizontal=0;startSize=0;swimlaneHead=0;swimlaneBody=0;top=0;left=0;bottom=0;right=0;collapsible=0;dropTarget=0;fillColor=none;points=[[0,0.5],[1,0.5]];portConstraint=eastwest;strokeColor=inherit;fontSize=16;fontFamily=Atkinson Hyperlegible;fontSource=https%3A%2F%2Ffonts.googleapis.com%2Fcss%3Ffamily%3DAtkinson%2BHyperlegible;" vertex="1" parent="T7_ayMRb7OsO0juk5p_l-222">
          <mxGeometry y="160" width="473" height="90" as="geometry" />
        </mxCell>
        <mxCell id="T7_ayMRb7OsO0juk5p_l-239" value="3" style="shape=partialRectangle;html=1;whiteSpace=wrap;connectable=0;fillColor=none;top=0;left=0;bottom=0;right=0;overflow=hidden;strokeColor=inherit;fontSize=16;" vertex="1" visible="0" parent="T7_ayMRb7OsO0juk5p_l-238">
          <mxGeometry width="53" height="90" as="geometry">
            <mxRectangle width="53" height="90" as="alternateBounds" />
          </mxGeometry>
        </mxCell>
        <mxCell id="T7_ayMRb7OsO0juk5p_l-240" value="A2" style="shape=partialRectangle;html=1;whiteSpace=wrap;connectable=0;fillColor=#dae8fc;top=1;left=1;bottom=1;right=1;overflow=hidden;strokeColor=#6c8ebf;fontSize=16;horizontal=0;perimeterSpacing=2;fontFamily=Atkinson Hyperlegible;fontSource=https%3A%2F%2Ffonts.googleapis.com%2Fcss%3Ffamily%3DAtkinson%2BHyperlegible;" vertex="1" parent="T7_ayMRb7OsO0juk5p_l-238">
          <mxGeometry x="53" width="27" height="90" as="geometry">
            <mxRectangle width="27" height="90" as="alternateBounds" />
          </mxGeometry>
        </mxCell>
        <mxCell id="T7_ayMRb7OsO0juk5p_l-241" value="DV for A2,B1" style="shape=partialRectangle;html=1;whiteSpace=wrap;connectable=0;fillColor=none;top=1;left=1;bottom=1;right=1;align=center;spacingLeft=6;overflow=hidden;strokeColor=default;fontSize=16;labelBorderColor=none;fontFamily=Atkinson Hyperlegible;fontSource=https%3A%2F%2Ffonts.googleapis.com%2Fcss%3Ffamily%3DAtkinson%2BHyperlegible;" vertex="1" parent="T7_ayMRb7OsO0juk5p_l-238">
          <mxGeometry x="80" width="209" height="90" as="geometry">
            <mxRectangle width="209" height="90" as="alternateBounds" />
          </mxGeometry>
        </mxCell>
        <mxCell id="T7_ayMRb7OsO0juk5p_l-242" value="DV for A2,B2" style="shape=partialRectangle;html=1;whiteSpace=wrap;connectable=0;fillColor=none;top=1;left=1;bottom=1;right=1;align=center;spacingLeft=6;overflow=hidden;strokeColor=default;fontSize=16;labelBorderColor=none;fontFamily=Atkinson Hyperlegible;fontSource=https%3A%2F%2Ffonts.googleapis.com%2Fcss%3Ffamily%3DAtkinson%2BHyperlegible;" vertex="1" parent="T7_ayMRb7OsO0juk5p_l-238">
          <mxGeometry x="289" width="184" height="90" as="geometry">
            <mxRectangle width="184" height="90" as="alternateBounds" />
          </mxGeometry>
        </mxCell>
        <mxCell id="T7_ayMRb7OsO0juk5p_l-243" value="IV(A)" style="shape=table;startSize=30;container=1;collapsible=0;childLayout=tableLayout;fixedRows=1;rowLines=0;fontStyle=1;strokeColor=#6c8ebf;fontSize=16;fillColor=#dae8fc;fontFamily=Atkinson Hyperlegible;fontSource=https%3A%2F%2Ffonts.googleapis.com%2Fcss%3Ffamily%3DAtkinson%2BHyperlegible;" vertex="1" parent="T7_ayMRb7OsO0juk5p_l-221">
          <mxGeometry x="20" y="620" width="180" height="120" as="geometry" />
        </mxCell>
        <mxCell id="T7_ayMRb7OsO0juk5p_l-244" value="" style="shape=tableRow;horizontal=0;startSize=0;swimlaneHead=0;swimlaneBody=0;top=0;left=0;bottom=0;right=0;collapsible=0;dropTarget=0;fillColor=none;points=[[0,0.5],[1,0.5]];portConstraint=eastwest;strokeColor=inherit;fontSize=16;fontFamily=Atkinson Hyperlegible;fontSource=https%3A%2F%2Ffonts.googleapis.com%2Fcss%3Ffamily%3DAtkinson%2BHyperlegible;" vertex="1" parent="T7_ayMRb7OsO0juk5p_l-243">
          <mxGeometry y="30" width="180" height="30" as="geometry" />
        </mxCell>
        <mxCell id="T7_ayMRb7OsO0juk5p_l-245" value="" style="shape=partialRectangle;html=1;whiteSpace=wrap;connectable=0;fillColor=none;top=1;left=1;bottom=1;right=1;overflow=hidden;pointerEvents=1;strokeColor=inherit;fontSize=16;fontFamily=Atkinson Hyperlegible;fontSource=https%3A%2F%2Ffonts.googleapis.com%2Fcss%3Ffamily%3DAtkinson%2BHyperlegible;" vertex="1" parent="T7_ayMRb7OsO0juk5p_l-244">
          <mxGeometry width="40" height="30" as="geometry">
            <mxRectangle width="40" height="30" as="alternateBounds" />
          </mxGeometry>
        </mxCell>
        <mxCell id="T7_ayMRb7OsO0juk5p_l-246" value="Level 1" style="shape=partialRectangle;html=1;whiteSpace=wrap;connectable=0;fillColor=none;top=1;left=1;bottom=1;right=1;align=left;spacingLeft=6;overflow=hidden;strokeColor=inherit;fontSize=16;fontFamily=Atkinson Hyperlegible;fontSource=https%3A%2F%2Ffonts.googleapis.com%2Fcss%3Ffamily%3DAtkinson%2BHyperlegible;" vertex="1" parent="T7_ayMRb7OsO0juk5p_l-244">
          <mxGeometry x="40" width="140" height="30" as="geometry">
            <mxRectangle width="140" height="30" as="alternateBounds" />
          </mxGeometry>
        </mxCell>
        <mxCell id="T7_ayMRb7OsO0juk5p_l-247" value="" style="shape=tableRow;horizontal=0;startSize=0;swimlaneHead=0;swimlaneBody=0;top=0;left=0;bottom=0;right=0;collapsible=0;dropTarget=0;fillColor=none;points=[[0,0.5],[1,0.5]];portConstraint=eastwest;strokeColor=inherit;fontSize=16;fontFamily=Atkinson Hyperlegible;fontSource=https%3A%2F%2Ffonts.googleapis.com%2Fcss%3Ffamily%3DAtkinson%2BHyperlegible;" vertex="1" parent="T7_ayMRb7OsO0juk5p_l-243">
          <mxGeometry y="60" width="180" height="30" as="geometry" />
        </mxCell>
        <mxCell id="T7_ayMRb7OsO0juk5p_l-248" value="" style="shape=partialRectangle;html=1;whiteSpace=wrap;connectable=0;fillColor=none;top=1;left=1;bottom=1;right=1;overflow=hidden;strokeColor=inherit;fontSize=16;fontFamily=Atkinson Hyperlegible;fontSource=https%3A%2F%2Ffonts.googleapis.com%2Fcss%3Ffamily%3DAtkinson%2BHyperlegible;" vertex="1" parent="T7_ayMRb7OsO0juk5p_l-247">
          <mxGeometry width="40" height="30" as="geometry">
            <mxRectangle width="40" height="30" as="alternateBounds" />
          </mxGeometry>
        </mxCell>
        <mxCell id="T7_ayMRb7OsO0juk5p_l-249" value="Level 2" style="shape=partialRectangle;html=1;whiteSpace=wrap;connectable=0;fillColor=none;top=1;left=1;bottom=1;right=1;align=left;spacingLeft=6;overflow=hidden;strokeColor=inherit;fontSize=16;fontFamily=Atkinson Hyperlegible;fontSource=https%3A%2F%2Ffonts.googleapis.com%2Fcss%3Ffamily%3DAtkinson%2BHyperlegible;" vertex="1" parent="T7_ayMRb7OsO0juk5p_l-247">
          <mxGeometry x="40" width="140" height="30" as="geometry">
            <mxRectangle width="140" height="30" as="alternateBounds" />
          </mxGeometry>
        </mxCell>
        <mxCell id="T7_ayMRb7OsO0juk5p_l-250" style="shape=tableRow;horizontal=0;startSize=0;swimlaneHead=0;swimlaneBody=0;top=0;left=0;bottom=0;right=0;collapsible=0;dropTarget=0;fillColor=none;points=[[0,0.5],[1,0.5]];portConstraint=eastwest;strokeColor=inherit;fontSize=16;fontFamily=Atkinson Hyperlegible;fontSource=https%3A%2F%2Ffonts.googleapis.com%2Fcss%3Ffamily%3DAtkinson%2BHyperlegible;" vertex="1" parent="T7_ayMRb7OsO0juk5p_l-243">
          <mxGeometry y="90" width="180" height="30" as="geometry" />
        </mxCell>
        <mxCell id="T7_ayMRb7OsO0juk5p_l-251" value="" style="shape=partialRectangle;html=1;whiteSpace=wrap;connectable=0;fillColor=none;top=0;left=0;bottom=0;right=0;overflow=hidden;strokeColor=inherit;fontSize=16;fontFamily=Atkinson Hyperlegible;fontSource=https%3A%2F%2Ffonts.googleapis.com%2Fcss%3Ffamily%3DAtkinson%2BHyperlegible;" vertex="1" parent="T7_ayMRb7OsO0juk5p_l-250">
          <mxGeometry width="40" height="30" as="geometry">
            <mxRectangle width="40" height="30" as="alternateBounds" />
          </mxGeometry>
        </mxCell>
        <mxCell id="T7_ayMRb7OsO0juk5p_l-252" value="Between/Within?" style="shape=partialRectangle;html=1;whiteSpace=wrap;connectable=0;fillColor=none;top=0;left=0;bottom=0;right=0;align=left;spacingLeft=6;overflow=hidden;strokeColor=inherit;fontSize=16;fontFamily=Atkinson Hyperlegible;fontSource=https%3A%2F%2Ffonts.googleapis.com%2Fcss%3Ffamily%3DAtkinson%2BHyperlegible;" vertex="1" parent="T7_ayMRb7OsO0juk5p_l-250">
          <mxGeometry x="40" width="140" height="30" as="geometry">
            <mxRectangle width="140" height="30" as="alternateBounds" />
          </mxGeometry>
        </mxCell>
        <mxCell id="T7_ayMRb7OsO0juk5p_l-253" value="IV(B)" style="shape=table;startSize=30;container=1;collapsible=0;childLayout=tableLayout;fixedRows=1;rowLines=0;fontStyle=1;strokeColor=#d6b656;fontSize=16;fillColor=#fff2cc;fontFamily=Atkinson Hyperlegible;fontSource=https%3A%2F%2Ffonts.googleapis.com%2Fcss%3Ffamily%3DAtkinson%2BHyperlegible;" vertex="1" parent="T7_ayMRb7OsO0juk5p_l-221">
          <mxGeometry x="20" y="750" width="180" height="120" as="geometry" />
        </mxCell>
        <mxCell id="T7_ayMRb7OsO0juk5p_l-254" value="" style="shape=tableRow;horizontal=0;startSize=0;swimlaneHead=0;swimlaneBody=0;top=0;left=0;bottom=0;right=0;collapsible=0;dropTarget=0;fillColor=none;points=[[0,0.5],[1,0.5]];portConstraint=eastwest;strokeColor=inherit;fontSize=16;fontFamily=Atkinson Hyperlegible;fontSource=https%3A%2F%2Ffonts.googleapis.com%2Fcss%3Ffamily%3DAtkinson%2BHyperlegible;" vertex="1" parent="T7_ayMRb7OsO0juk5p_l-253">
          <mxGeometry y="30" width="180" height="30" as="geometry" />
        </mxCell>
        <mxCell id="T7_ayMRb7OsO0juk5p_l-255" value="" style="shape=partialRectangle;html=1;whiteSpace=wrap;connectable=0;fillColor=none;top=1;left=1;bottom=1;right=1;overflow=hidden;pointerEvents=1;strokeColor=inherit;fontSize=16;fontFamily=Atkinson Hyperlegible;fontSource=https%3A%2F%2Ffonts.googleapis.com%2Fcss%3Ffamily%3DAtkinson%2BHyperlegible;" vertex="1" parent="T7_ayMRb7OsO0juk5p_l-254">
          <mxGeometry width="40" height="30" as="geometry">
            <mxRectangle width="40" height="30" as="alternateBounds" />
          </mxGeometry>
        </mxCell>
        <mxCell id="T7_ayMRb7OsO0juk5p_l-256" value="Level 1" style="shape=partialRectangle;html=1;whiteSpace=wrap;connectable=0;fillColor=none;top=1;left=1;bottom=1;right=1;align=left;spacingLeft=6;overflow=hidden;strokeColor=inherit;fontSize=16;fontFamily=Atkinson Hyperlegible;fontSource=https%3A%2F%2Ffonts.googleapis.com%2Fcss%3Ffamily%3DAtkinson%2BHyperlegible;" vertex="1" parent="T7_ayMRb7OsO0juk5p_l-254">
          <mxGeometry x="40" width="140" height="30" as="geometry">
            <mxRectangle width="140" height="30" as="alternateBounds" />
          </mxGeometry>
        </mxCell>
        <mxCell id="T7_ayMRb7OsO0juk5p_l-257" value="" style="shape=tableRow;horizontal=0;startSize=0;swimlaneHead=0;swimlaneBody=0;top=0;left=0;bottom=0;right=0;collapsible=0;dropTarget=0;fillColor=none;points=[[0,0.5],[1,0.5]];portConstraint=eastwest;strokeColor=inherit;fontSize=16;fontFamily=Atkinson Hyperlegible;fontSource=https%3A%2F%2Ffonts.googleapis.com%2Fcss%3Ffamily%3DAtkinson%2BHyperlegible;" vertex="1" parent="T7_ayMRb7OsO0juk5p_l-253">
          <mxGeometry y="60" width="180" height="30" as="geometry" />
        </mxCell>
        <mxCell id="T7_ayMRb7OsO0juk5p_l-258" value="" style="shape=partialRectangle;html=1;whiteSpace=wrap;connectable=0;fillColor=none;top=1;left=1;bottom=1;right=1;overflow=hidden;strokeColor=inherit;fontSize=16;fontFamily=Atkinson Hyperlegible;fontSource=https%3A%2F%2Ffonts.googleapis.com%2Fcss%3Ffamily%3DAtkinson%2BHyperlegible;" vertex="1" parent="T7_ayMRb7OsO0juk5p_l-257">
          <mxGeometry width="40" height="30" as="geometry">
            <mxRectangle width="40" height="30" as="alternateBounds" />
          </mxGeometry>
        </mxCell>
        <mxCell id="T7_ayMRb7OsO0juk5p_l-259" value="Level 2" style="shape=partialRectangle;html=1;whiteSpace=wrap;connectable=0;fillColor=none;top=1;left=1;bottom=1;right=1;align=left;spacingLeft=6;overflow=hidden;strokeColor=inherit;fontSize=16;fontFamily=Atkinson Hyperlegible;fontSource=https%3A%2F%2Ffonts.googleapis.com%2Fcss%3Ffamily%3DAtkinson%2BHyperlegible;" vertex="1" parent="T7_ayMRb7OsO0juk5p_l-257">
          <mxGeometry x="40" width="140" height="30" as="geometry">
            <mxRectangle width="140" height="30" as="alternateBounds" />
          </mxGeometry>
        </mxCell>
        <mxCell id="T7_ayMRb7OsO0juk5p_l-260" style="shape=tableRow;horizontal=0;startSize=0;swimlaneHead=0;swimlaneBody=0;top=0;left=0;bottom=0;right=0;collapsible=0;dropTarget=0;fillColor=none;points=[[0,0.5],[1,0.5]];portConstraint=eastwest;strokeColor=inherit;fontSize=16;fontFamily=Atkinson Hyperlegible;fontSource=https%3A%2F%2Ffonts.googleapis.com%2Fcss%3Ffamily%3DAtkinson%2BHyperlegible;" vertex="1" parent="T7_ayMRb7OsO0juk5p_l-253">
          <mxGeometry y="90" width="180" height="30" as="geometry" />
        </mxCell>
        <mxCell id="T7_ayMRb7OsO0juk5p_l-261" value="" style="shape=partialRectangle;html=1;whiteSpace=wrap;connectable=0;fillColor=none;top=1;left=1;bottom=1;right=1;overflow=hidden;strokeColor=inherit;fontSize=16;fontFamily=Atkinson Hyperlegible;fontSource=https%3A%2F%2Ffonts.googleapis.com%2Fcss%3Ffamily%3DAtkinson%2BHyperlegible;" vertex="1" parent="T7_ayMRb7OsO0juk5p_l-260">
          <mxGeometry width="40" height="30" as="geometry">
            <mxRectangle width="40" height="30" as="alternateBounds" />
          </mxGeometry>
        </mxCell>
        <mxCell id="T7_ayMRb7OsO0juk5p_l-262" value="Between/Within?" style="shape=partialRectangle;html=1;whiteSpace=wrap;connectable=0;fillColor=none;top=1;left=1;bottom=1;right=1;align=left;spacingLeft=6;overflow=hidden;strokeColor=inherit;fontSize=16;fontFamily=Atkinson Hyperlegible;fontSource=https%3A%2F%2Ffonts.googleapis.com%2Fcss%3Ffamily%3DAtkinson%2BHyperlegible;" vertex="1" parent="T7_ayMRb7OsO0juk5p_l-260">
          <mxGeometry x="40" width="140" height="30" as="geometry">
            <mxRectangle width="140" height="30" as="alternateBounds" />
          </mxGeometry>
        </mxCell>
        <mxCell id="T7_ayMRb7OsO0juk5p_l-263" value="Dependent Variable" style="shape=table;startSize=30;container=1;collapsible=0;childLayout=tableLayout;fixedRows=1;rowLines=0;fontStyle=1;strokeColor=#82b366;fontSize=16;fillColor=#d5e8d4;fontFamily=Atkinson Hyperlegible;fontSource=https%3A%2F%2Ffonts.googleapis.com%2Fcss%3Ffamily%3DAtkinson%2BHyperlegible;" vertex="1" parent="T7_ayMRb7OsO0juk5p_l-221">
          <mxGeometry x="20" y="890" width="670" height="120" as="geometry" />
        </mxCell>
        <mxCell id="T7_ayMRb7OsO0juk5p_l-264" value="" style="shape=tableRow;horizontal=0;startSize=0;swimlaneHead=0;swimlaneBody=0;top=1;left=1;bottom=1;right=1;collapsible=0;dropTarget=0;fillColor=none;points=[[0,0.5],[1,0.5]];portConstraint=eastwest;strokeColor=inherit;fontSize=16;fontFamily=Atkinson Hyperlegible;fontSource=https%3A%2F%2Ffonts.googleapis.com%2Fcss%3Ffamily%3DAtkinson%2BHyperlegible;" vertex="1" parent="T7_ayMRb7OsO0juk5p_l-263">
          <mxGeometry y="30" width="670" height="30" as="geometry" />
        </mxCell>
        <mxCell id="T7_ayMRb7OsO0juk5p_l-265" value="" style="shape=partialRectangle;html=1;whiteSpace=wrap;connectable=0;fillColor=none;top=0;left=0;bottom=0;right=0;overflow=hidden;pointerEvents=1;strokeColor=inherit;fontSize=16;fontFamily=Atkinson Hyperlegible;fontSource=https%3A%2F%2Ffonts.googleapis.com%2Fcss%3Ffamily%3DAtkinson%2BHyperlegible;" vertex="1" parent="T7_ayMRb7OsO0juk5p_l-264">
          <mxGeometry width="149" height="30" as="geometry">
            <mxRectangle width="149" height="30" as="alternateBounds" />
          </mxGeometry>
        </mxCell>
        <mxCell id="T7_ayMRb7OsO0juk5p_l-266" value="My Dependent Variable" style="shape=partialRectangle;html=1;whiteSpace=wrap;connectable=0;fillColor=none;top=0;left=0;bottom=0;right=0;align=left;spacingLeft=6;overflow=hidden;strokeColor=inherit;fontSize=16;fontFamily=Atkinson Hyperlegible;fontSource=https%3A%2F%2Ffonts.googleapis.com%2Fcss%3Ffamily%3DAtkinson%2BHyperlegible;" vertex="1" parent="T7_ayMRb7OsO0juk5p_l-264">
          <mxGeometry x="149" width="521" height="30" as="geometry">
            <mxRectangle width="521" height="30" as="alternateBounds" />
          </mxGeometry>
        </mxCell>
        <mxCell id="T7_ayMRb7OsO0juk5p_l-267" value="" style="shape=tableRow;horizontal=0;startSize=0;swimlaneHead=0;swimlaneBody=0;top=1;left=1;bottom=1;right=1;collapsible=0;dropTarget=0;fillColor=none;points=[[0,0.5],[1,0.5]];portConstraint=eastwest;strokeColor=inherit;fontSize=16;fontFamily=Atkinson Hyperlegible;fontSource=https%3A%2F%2Ffonts.googleapis.com%2Fcss%3Ffamily%3DAtkinson%2BHyperlegible;" vertex="1" parent="T7_ayMRb7OsO0juk5p_l-263">
          <mxGeometry y="60" width="670" height="30" as="geometry" />
        </mxCell>
        <mxCell id="T7_ayMRb7OsO0juk5p_l-268" value="" style="shape=partialRectangle;html=1;whiteSpace=wrap;connectable=0;fillColor=none;top=0;left=0;bottom=0;right=0;overflow=hidden;strokeColor=inherit;fontSize=16;fontFamily=Atkinson Hyperlegible;fontSource=https%3A%2F%2Ffonts.googleapis.com%2Fcss%3Ffamily%3DAtkinson%2BHyperlegible;" vertex="1" parent="T7_ayMRb7OsO0juk5p_l-267">
          <mxGeometry width="149" height="30" as="geometry">
            <mxRectangle width="149" height="30" as="alternateBounds" />
          </mxGeometry>
        </mxCell>
        <mxCell id="T7_ayMRb7OsO0juk5p_l-269" value="How my DV is measured" style="shape=partialRectangle;html=1;whiteSpace=wrap;connectable=0;fillColor=none;top=0;left=0;bottom=0;right=0;align=left;spacingLeft=6;overflow=hidden;strokeColor=inherit;fontSize=16;fontFamily=Atkinson Hyperlegible;fontSource=https%3A%2F%2Ffonts.googleapis.com%2Fcss%3Ffamily%3DAtkinson%2BHyperlegible;" vertex="1" parent="T7_ayMRb7OsO0juk5p_l-267">
          <mxGeometry x="149" width="521" height="30" as="geometry">
            <mxRectangle width="521" height="30" as="alternateBounds" />
          </mxGeometry>
        </mxCell>
        <mxCell id="T7_ayMRb7OsO0juk5p_l-270" value="" style="shape=tableRow;horizontal=0;startSize=0;swimlaneHead=0;swimlaneBody=0;top=1;left=1;bottom=1;right=1;collapsible=0;dropTarget=0;fillColor=none;points=[[0,0.5],[1,0.5]];portConstraint=eastwest;strokeColor=inherit;fontSize=16;fontFamily=Atkinson Hyperlegible;fontSource=https%3A%2F%2Ffonts.googleapis.com%2Fcss%3Ffamily%3DAtkinson%2BHyperlegible;" vertex="1" parent="T7_ayMRb7OsO0juk5p_l-263">
          <mxGeometry y="90" width="670" height="30" as="geometry" />
        </mxCell>
        <mxCell id="T7_ayMRb7OsO0juk5p_l-271" value="" style="shape=partialRectangle;html=1;whiteSpace=wrap;connectable=0;fillColor=none;top=0;left=0;bottom=0;right=0;overflow=hidden;strokeColor=inherit;fontSize=16;fontFamily=Atkinson Hyperlegible;fontSource=https%3A%2F%2Ffonts.googleapis.com%2Fcss%3Ffamily%3DAtkinson%2BHyperlegible;" vertex="1" parent="T7_ayMRb7OsO0juk5p_l-270">
          <mxGeometry width="149" height="30" as="geometry">
            <mxRectangle width="149" height="30" as="alternateBounds" />
          </mxGeometry>
        </mxCell>
        <mxCell id="T7_ayMRb7OsO0juk5p_l-272" value="Continuous" style="shape=partialRectangle;html=1;whiteSpace=wrap;connectable=0;fillColor=none;top=0;left=0;bottom=0;right=0;align=left;spacingLeft=6;overflow=hidden;strokeColor=inherit;fontSize=16;fontFamily=Atkinson Hyperlegible;fontSource=https%3A%2F%2Ffonts.googleapis.com%2Fcss%3Ffamily%3DAtkinson%2BHyperlegible;" vertex="1" parent="T7_ayMRb7OsO0juk5p_l-270">
          <mxGeometry x="149" width="521" height="30" as="geometry">
            <mxRectangle width="521" height="30" as="alternateBounds" />
          </mxGeometry>
        </mxCell>
        <mxCell id="T7_ayMRb7OsO0juk5p_l-273" value="This is my design" style="shape=table;startSize=30;container=1;collapsible=0;childLayout=tableLayout;fixedRows=1;rowLines=0;fontStyle=1;strokeColor=#d79b00;fontSize=16;fillColor=#ffe6cc;fontFamily=Atkinson Hyperlegible;fontSource=https%3A%2F%2Ffonts.googleapis.com%2Fcss%3Ffamily%3DAtkinson%2BHyperlegible;" vertex="1" parent="T7_ayMRb7OsO0juk5p_l-221">
          <mxGeometry x="710" y="620" width="220" height="120" as="geometry" />
        </mxCell>
        <mxCell id="T7_ayMRb7OsO0juk5p_l-274" value="" style="shape=tableRow;horizontal=0;startSize=0;swimlaneHead=0;swimlaneBody=0;top=1;left=1;bottom=1;right=1;collapsible=0;dropTarget=0;fillColor=none;points=[[0,0.5],[1,0.5]];portConstraint=eastwest;strokeColor=inherit;fontSize=16;fontFamily=Atkinson Hyperlegible;fontSource=https%3A%2F%2Ffonts.googleapis.com%2Fcss%3Ffamily%3DAtkinson%2BHyperlegible;" vertex="1" parent="T7_ayMRb7OsO0juk5p_l-273">
          <mxGeometry y="30" width="220" height="30" as="geometry" />
        </mxCell>
        <mxCell id="T7_ayMRb7OsO0juk5p_l-275" value="?" style="shape=partialRectangle;html=1;whiteSpace=wrap;connectable=0;fillColor=none;top=0;left=0;bottom=0;right=0;overflow=hidden;pointerEvents=1;strokeColor=inherit;fontSize=16;fontFamily=Atkinson Hyperlegible;fontSource=https%3A%2F%2Ffonts.googleapis.com%2Fcss%3Ffamily%3DAtkinson%2BHyperlegible;" vertex="1" parent="T7_ayMRb7OsO0juk5p_l-274">
          <mxGeometry width="49" height="30" as="geometry">
            <mxRectangle width="49" height="30" as="alternateBounds" />
          </mxGeometry>
        </mxCell>
        <mxCell id="T7_ayMRb7OsO0juk5p_l-276" value="" style="shape=partialRectangle;html=1;whiteSpace=wrap;connectable=0;fillColor=none;top=0;left=0;bottom=0;right=0;align=left;spacingLeft=6;overflow=hidden;strokeColor=inherit;fontSize=16;fontFamily=Atkinson Hyperlegible;fontSource=https%3A%2F%2Ffonts.googleapis.com%2Fcss%3Ffamily%3DAtkinson%2BHyperlegible;" vertex="1" parent="T7_ayMRb7OsO0juk5p_l-274">
          <mxGeometry x="49" width="171" height="30" as="geometry">
            <mxRectangle width="171" height="30" as="alternateBounds" />
          </mxGeometry>
        </mxCell>
        <mxCell id="T7_ayMRb7OsO0juk5p_l-277" value="" style="shape=tableRow;horizontal=0;startSize=0;swimlaneHead=0;swimlaneBody=0;top=1;left=1;bottom=1;right=1;collapsible=0;dropTarget=0;fillColor=none;points=[[0,0.5],[1,0.5]];portConstraint=eastwest;strokeColor=inherit;fontSize=16;fontFamily=Atkinson Hyperlegible;fontSource=https%3A%2F%2Ffonts.googleapis.com%2Fcss%3Ffamily%3DAtkinson%2BHyperlegible;" vertex="1" parent="T7_ayMRb7OsO0juk5p_l-273">
          <mxGeometry y="60" width="220" height="30" as="geometry" />
        </mxCell>
        <mxCell id="T7_ayMRb7OsO0juk5p_l-278" value="?" style="shape=partialRectangle;html=1;whiteSpace=wrap;connectable=0;fillColor=none;top=0;left=0;bottom=0;right=0;overflow=hidden;strokeColor=inherit;fontSize=16;fontFamily=Atkinson Hyperlegible;fontSource=https%3A%2F%2Ffonts.googleapis.com%2Fcss%3Ffamily%3DAtkinson%2BHyperlegible;" vertex="1" parent="T7_ayMRb7OsO0juk5p_l-277">
          <mxGeometry width="49" height="30" as="geometry">
            <mxRectangle width="49" height="30" as="alternateBounds" />
          </mxGeometry>
        </mxCell>
        <mxCell id="T7_ayMRb7OsO0juk5p_l-279" value="" style="shape=partialRectangle;html=1;whiteSpace=wrap;connectable=0;fillColor=none;top=0;left=0;bottom=0;right=0;align=left;spacingLeft=6;overflow=hidden;strokeColor=inherit;fontSize=16;fontFamily=Atkinson Hyperlegible;fontSource=https%3A%2F%2Ffonts.googleapis.com%2Fcss%3Ffamily%3DAtkinson%2BHyperlegible;" vertex="1" parent="T7_ayMRb7OsO0juk5p_l-277">
          <mxGeometry x="49" width="171" height="30" as="geometry">
            <mxRectangle width="171" height="30" as="alternateBounds" />
          </mxGeometry>
        </mxCell>
        <mxCell id="T7_ayMRb7OsO0juk5p_l-280" value="" style="shape=tableRow;horizontal=0;startSize=0;swimlaneHead=0;swimlaneBody=0;top=0;left=0;bottom=0;right=0;collapsible=0;dropTarget=0;fillColor=none;points=[[0,0.5],[1,0.5]];portConstraint=eastwest;strokeColor=inherit;fontSize=16;fontFamily=Atkinson Hyperlegible;fontSource=https%3A%2F%2Ffonts.googleapis.com%2Fcss%3Ffamily%3DAtkinson%2BHyperlegible;" vertex="1" parent="T7_ayMRb7OsO0juk5p_l-273">
          <mxGeometry y="90" width="220" height="30" as="geometry" />
        </mxCell>
        <mxCell id="T7_ayMRb7OsO0juk5p_l-281" value="?" style="shape=partialRectangle;html=1;whiteSpace=wrap;connectable=0;fillColor=none;top=0;left=0;bottom=0;right=0;overflow=hidden;strokeColor=inherit;fontSize=16;fontFamily=Atkinson Hyperlegible;fontSource=https%3A%2F%2Ffonts.googleapis.com%2Fcss%3Ffamily%3DAtkinson%2BHyperlegible;" vertex="1" parent="T7_ayMRb7OsO0juk5p_l-280">
          <mxGeometry width="49" height="30" as="geometry">
            <mxRectangle width="49" height="30" as="alternateBounds" />
          </mxGeometry>
        </mxCell>
        <mxCell id="T7_ayMRb7OsO0juk5p_l-282" value="" style="shape=partialRectangle;html=1;whiteSpace=wrap;connectable=0;fillColor=none;top=0;left=0;bottom=0;right=0;align=left;spacingLeft=6;overflow=hidden;strokeColor=inherit;fontSize=16;fontFamily=Atkinson Hyperlegible;fontSource=https%3A%2F%2Ffonts.googleapis.com%2Fcss%3Ffamily%3DAtkinson%2BHyperlegible;" vertex="1" parent="T7_ayMRb7OsO0juk5p_l-280">
          <mxGeometry x="49" width="171" height="30" as="geometry">
            <mxRectangle width="171" height="30" as="alternateBounds" />
          </mxGeometry>
        </mxCell>
        <mxCell id="T7_ayMRb7OsO0juk5p_l-283" value="Hypotheses" style="shape=table;startSize=30;container=1;collapsible=0;childLayout=tableLayout;fixedRows=1;rowLines=0;fontStyle=0;strokeColor=#b85450;fontSize=16;fillColor=#f8cecc;fontFamily=Atkinson Hyperlegible;fontSource=https%3A%2F%2Ffonts.googleapis.com%2Fcss%3Ffamily%3DAtkinson%2BHyperlegible;" vertex="1" parent="T7_ayMRb7OsO0juk5p_l-221">
          <mxGeometry x="20" y="1020" width="670" height="120" as="geometry" />
        </mxCell>
        <mxCell id="T7_ayMRb7OsO0juk5p_l-284" value="" style="shape=tableRow;horizontal=0;startSize=0;swimlaneHead=0;swimlaneBody=0;top=1;left=1;bottom=1;right=1;collapsible=0;dropTarget=0;fillColor=none;points=[[0,0.5],[1,0.5]];portConstraint=eastwest;strokeColor=inherit;fontSize=16;fontFamily=Atkinson Hyperlegible;fontSource=https%3A%2F%2Ffonts.googleapis.com%2Fcss%3Ffamily%3DAtkinson%2BHyperlegible;" vertex="1" parent="T7_ayMRb7OsO0juk5p_l-283">
          <mxGeometry y="30" width="670" height="30" as="geometry" />
        </mxCell>
        <mxCell id="T7_ayMRb7OsO0juk5p_l-285" value="" style="shape=partialRectangle;html=1;whiteSpace=wrap;connectable=0;fillColor=none;top=0;left=0;bottom=0;right=0;overflow=hidden;pointerEvents=1;strokeColor=inherit;fontSize=16;fontFamily=Atkinson Hyperlegible;fontSource=https%3A%2F%2Ffonts.googleapis.com%2Fcss%3Ffamily%3DAtkinson%2BHyperlegible;" vertex="1" parent="T7_ayMRb7OsO0juk5p_l-284">
          <mxGeometry width="149" height="30" as="geometry">
            <mxRectangle width="149" height="30" as="alternateBounds" />
          </mxGeometry>
        </mxCell>
        <mxCell id="T7_ayMRb7OsO0juk5p_l-286" value="Main effect of IV(A) on DV" style="shape=partialRectangle;html=1;whiteSpace=wrap;connectable=0;fillColor=none;top=0;left=0;bottom=0;right=0;align=left;spacingLeft=6;overflow=hidden;strokeColor=inherit;fontSize=16;fontFamily=Atkinson Hyperlegible;fontSource=https%3A%2F%2Ffonts.googleapis.com%2Fcss%3Ffamily%3DAtkinson%2BHyperlegible;" vertex="1" parent="T7_ayMRb7OsO0juk5p_l-284">
          <mxGeometry x="149" width="521" height="30" as="geometry">
            <mxRectangle width="521" height="30" as="alternateBounds" />
          </mxGeometry>
        </mxCell>
        <mxCell id="T7_ayMRb7OsO0juk5p_l-287" value="" style="shape=tableRow;horizontal=0;startSize=0;swimlaneHead=0;swimlaneBody=0;top=1;left=1;bottom=1;right=1;collapsible=0;dropTarget=0;fillColor=none;points=[[0,0.5],[1,0.5]];portConstraint=eastwest;strokeColor=inherit;fontSize=16;fontFamily=Atkinson Hyperlegible;fontSource=https%3A%2F%2Ffonts.googleapis.com%2Fcss%3Ffamily%3DAtkinson%2BHyperlegible;" vertex="1" parent="T7_ayMRb7OsO0juk5p_l-283">
          <mxGeometry y="60" width="670" height="30" as="geometry" />
        </mxCell>
        <mxCell id="T7_ayMRb7OsO0juk5p_l-288" value="" style="shape=partialRectangle;html=1;whiteSpace=wrap;connectable=0;fillColor=none;top=0;left=0;bottom=0;right=0;overflow=hidden;strokeColor=inherit;fontSize=16;fontFamily=Atkinson Hyperlegible;fontSource=https%3A%2F%2Ffonts.googleapis.com%2Fcss%3Ffamily%3DAtkinson%2BHyperlegible;" vertex="1" parent="T7_ayMRb7OsO0juk5p_l-287">
          <mxGeometry width="149" height="30" as="geometry">
            <mxRectangle width="149" height="30" as="alternateBounds" />
          </mxGeometry>
        </mxCell>
        <mxCell id="T7_ayMRb7OsO0juk5p_l-289" value="Main effect of IV(B) on DV" style="shape=partialRectangle;html=1;whiteSpace=wrap;connectable=0;fillColor=none;top=0;left=0;bottom=0;right=0;align=left;spacingLeft=6;overflow=hidden;strokeColor=inherit;fontSize=16;fontFamily=Atkinson Hyperlegible;fontSource=https%3A%2F%2Ffonts.googleapis.com%2Fcss%3Ffamily%3DAtkinson%2BHyperlegible;" vertex="1" parent="T7_ayMRb7OsO0juk5p_l-287">
          <mxGeometry x="149" width="521" height="30" as="geometry">
            <mxRectangle width="521" height="30" as="alternateBounds" />
          </mxGeometry>
        </mxCell>
        <mxCell id="T7_ayMRb7OsO0juk5p_l-290" value="" style="shape=tableRow;horizontal=0;startSize=0;swimlaneHead=0;swimlaneBody=0;top=1;left=1;bottom=1;right=1;collapsible=0;dropTarget=0;fillColor=none;points=[[0,0.5],[1,0.5]];portConstraint=eastwest;strokeColor=inherit;fontSize=16;fontFamily=Atkinson Hyperlegible;fontSource=https%3A%2F%2Ffonts.googleapis.com%2Fcss%3Ffamily%3DAtkinson%2BHyperlegible;" vertex="1" parent="T7_ayMRb7OsO0juk5p_l-283">
          <mxGeometry y="90" width="670" height="30" as="geometry" />
        </mxCell>
        <mxCell id="T7_ayMRb7OsO0juk5p_l-291" value="" style="shape=partialRectangle;html=1;whiteSpace=wrap;connectable=0;fillColor=none;top=0;left=0;bottom=0;right=0;overflow=hidden;strokeColor=inherit;fontSize=16;fontFamily=Atkinson Hyperlegible;fontSource=https%3A%2F%2Ffonts.googleapis.com%2Fcss%3Ffamily%3DAtkinson%2BHyperlegible;" vertex="1" parent="T7_ayMRb7OsO0juk5p_l-290">
          <mxGeometry width="149" height="30" as="geometry">
            <mxRectangle width="149" height="30" as="alternateBounds" />
          </mxGeometry>
        </mxCell>
        <mxCell id="T7_ayMRb7OsO0juk5p_l-292" value="Interaction effect of IV(A) * IV(B) on DV" style="shape=partialRectangle;html=1;whiteSpace=wrap;connectable=0;fillColor=none;top=0;left=0;bottom=0;right=0;align=left;spacingLeft=6;overflow=hidden;strokeColor=inherit;fontSize=16;fontFamily=Atkinson Hyperlegible;fontSource=https%3A%2F%2Ffonts.googleapis.com%2Fcss%3Ffamily%3DAtkinson%2BHyperlegible;" vertex="1" parent="T7_ayMRb7OsO0juk5p_l-290">
          <mxGeometry x="149" width="521" height="30" as="geometry">
            <mxRectangle width="521" height="30" as="alternateBounds" />
          </mxGeometry>
        </mxCell>
        <mxCell id="T7_ayMRb7OsO0juk5p_l-293" value="Effect Sizes" style="shape=table;startSize=30;container=1;collapsible=0;childLayout=tableLayout;fixedRows=1;rowLines=0;fontStyle=1;strokeColor=#666666;fontSize=16;fillColor=#f5f5f5;fontColor=#333333;fontFamily=Atkinson Hyperlegible;fontSource=https%3A%2F%2Ffonts.googleapis.com%2Fcss%3Ffamily%3DAtkinson%2BHyperlegible;" vertex="1" parent="T7_ayMRb7OsO0juk5p_l-221">
          <mxGeometry x="710" y="750" width="220" height="120" as="geometry" />
        </mxCell>
        <mxCell id="T7_ayMRb7OsO0juk5p_l-294" value="" style="shape=tableRow;horizontal=0;startSize=0;swimlaneHead=0;swimlaneBody=0;top=1;left=1;bottom=1;right=1;collapsible=0;dropTarget=0;fillColor=none;points=[[0,0.5],[1,0.5]];portConstraint=eastwest;strokeColor=inherit;fontSize=16;fontFamily=Atkinson Hyperlegible;fontSource=https%3A%2F%2Ffonts.googleapis.com%2Fcss%3Ffamily%3DAtkinson%2BHyperlegible;" vertex="1" parent="T7_ayMRb7OsO0juk5p_l-293">
          <mxGeometry y="30" width="220" height="30" as="geometry" />
        </mxCell>
        <mxCell id="T7_ayMRb7OsO0juk5p_l-295" value="" style="shape=partialRectangle;html=1;whiteSpace=wrap;connectable=0;fillColor=none;top=0;left=0;bottom=0;right=0;overflow=hidden;pointerEvents=1;strokeColor=inherit;fontSize=16;fontFamily=Atkinson Hyperlegible;fontSource=https%3A%2F%2Ffonts.googleapis.com%2Fcss%3Ffamily%3DAtkinson%2BHyperlegible;" vertex="1" parent="T7_ayMRb7OsO0juk5p_l-294">
          <mxGeometry width="49" height="30" as="geometry">
            <mxRectangle width="49" height="30" as="alternateBounds" />
          </mxGeometry>
        </mxCell>
        <mxCell id="T7_ayMRb7OsO0juk5p_l-296" value="?" style="shape=partialRectangle;html=1;whiteSpace=wrap;connectable=0;fillColor=none;top=0;left=0;bottom=0;right=0;align=left;spacingLeft=6;overflow=hidden;strokeColor=inherit;fontSize=16;fontFamily=Atkinson Hyperlegible;fontSource=https%3A%2F%2Ffonts.googleapis.com%2Fcss%3Ffamily%3DAtkinson%2BHyperlegible;" vertex="1" parent="T7_ayMRb7OsO0juk5p_l-294">
          <mxGeometry x="49" width="171" height="30" as="geometry">
            <mxRectangle width="171" height="30" as="alternateBounds" />
          </mxGeometry>
        </mxCell>
        <mxCell id="T7_ayMRb7OsO0juk5p_l-297" value="" style="shape=tableRow;horizontal=0;startSize=0;swimlaneHead=0;swimlaneBody=0;top=1;left=1;bottom=1;right=1;collapsible=0;dropTarget=0;fillColor=none;points=[[0,0.5],[1,0.5]];portConstraint=eastwest;strokeColor=inherit;fontSize=16;fontFamily=Atkinson Hyperlegible;fontSource=https%3A%2F%2Ffonts.googleapis.com%2Fcss%3Ffamily%3DAtkinson%2BHyperlegible;" vertex="1" parent="T7_ayMRb7OsO0juk5p_l-293">
          <mxGeometry y="60" width="220" height="30" as="geometry" />
        </mxCell>
        <mxCell id="T7_ayMRb7OsO0juk5p_l-298" value="" style="shape=partialRectangle;html=1;whiteSpace=wrap;connectable=0;fillColor=none;top=0;left=0;bottom=0;right=0;overflow=hidden;strokeColor=inherit;fontSize=16;fontFamily=Atkinson Hyperlegible;fontSource=https%3A%2F%2Ffonts.googleapis.com%2Fcss%3Ffamily%3DAtkinson%2BHyperlegible;" vertex="1" parent="T7_ayMRb7OsO0juk5p_l-297">
          <mxGeometry width="49" height="30" as="geometry">
            <mxRectangle width="49" height="30" as="alternateBounds" />
          </mxGeometry>
        </mxCell>
        <mxCell id="T7_ayMRb7OsO0juk5p_l-299" value="?" style="shape=partialRectangle;html=1;whiteSpace=wrap;connectable=0;fillColor=none;top=0;left=0;bottom=0;right=0;align=left;spacingLeft=6;overflow=hidden;strokeColor=inherit;fontSize=16;fontFamily=Atkinson Hyperlegible;fontSource=https%3A%2F%2Ffonts.googleapis.com%2Fcss%3Ffamily%3DAtkinson%2BHyperlegible;" vertex="1" parent="T7_ayMRb7OsO0juk5p_l-297">
          <mxGeometry x="49" width="171" height="30" as="geometry">
            <mxRectangle width="171" height="30" as="alternateBounds" />
          </mxGeometry>
        </mxCell>
        <mxCell id="T7_ayMRb7OsO0juk5p_l-300" value="" style="shape=tableRow;horizontal=0;startSize=0;swimlaneHead=0;swimlaneBody=0;top=1;left=1;bottom=1;right=1;collapsible=0;dropTarget=0;fillColor=none;points=[[0,0.5],[1,0.5]];portConstraint=eastwest;strokeColor=inherit;fontSize=16;fontFamily=Atkinson Hyperlegible;fontSource=https%3A%2F%2Ffonts.googleapis.com%2Fcss%3Ffamily%3DAtkinson%2BHyperlegible;" vertex="1" parent="T7_ayMRb7OsO0juk5p_l-293">
          <mxGeometry y="90" width="220" height="30" as="geometry" />
        </mxCell>
        <mxCell id="T7_ayMRb7OsO0juk5p_l-301" value="" style="shape=partialRectangle;html=1;whiteSpace=wrap;connectable=0;fillColor=none;top=0;left=0;bottom=0;right=0;overflow=hidden;strokeColor=inherit;fontSize=16;fontFamily=Atkinson Hyperlegible;fontSource=https%3A%2F%2Ffonts.googleapis.com%2Fcss%3Ffamily%3DAtkinson%2BHyperlegible;" vertex="1" parent="T7_ayMRb7OsO0juk5p_l-300">
          <mxGeometry width="49" height="30" as="geometry">
            <mxRectangle width="49" height="30" as="alternateBounds" />
          </mxGeometry>
        </mxCell>
        <mxCell id="T7_ayMRb7OsO0juk5p_l-302" value="?" style="shape=partialRectangle;html=1;whiteSpace=wrap;connectable=0;fillColor=none;top=0;left=0;bottom=0;right=0;align=left;spacingLeft=6;overflow=hidden;strokeColor=inherit;fontSize=16;fontFamily=Atkinson Hyperlegible;fontSource=https%3A%2F%2Ffonts.googleapis.com%2Fcss%3Ffamily%3DAtkinson%2BHyperlegible;" vertex="1" parent="T7_ayMRb7OsO0juk5p_l-300">
          <mxGeometry x="49" width="171" height="30" as="geometry">
            <mxRectangle width="171" height="30" as="alternateBounds" />
          </mxGeometry>
        </mxCell>
        <mxCell id="T7_ayMRb7OsO0juk5p_l-303" value="Sample Size Required" style="shape=table;startSize=30;container=1;collapsible=0;childLayout=tableLayout;fixedRows=1;rowLines=0;fontStyle=1;strokeColor=#0e8088;fontSize=16;fillColor=#b0e3e6;fontFamily=Atkinson Hyperlegible;fontSource=https%3A%2F%2Ffonts.googleapis.com%2Fcss%3Ffamily%3DAtkinson%2BHyperlegible;" vertex="1" parent="T7_ayMRb7OsO0juk5p_l-221">
          <mxGeometry x="710" y="890" width="220" height="120" as="geometry" />
        </mxCell>
        <mxCell id="T7_ayMRb7OsO0juk5p_l-304" value="" style="shape=tableRow;horizontal=0;startSize=0;swimlaneHead=0;swimlaneBody=0;top=1;left=1;bottom=1;right=1;collapsible=0;dropTarget=0;fillColor=none;points=[[0,0.5],[1,0.5]];portConstraint=eastwest;strokeColor=inherit;fontSize=16;fontFamily=Atkinson Hyperlegible;fontSource=https%3A%2F%2Ffonts.googleapis.com%2Fcss%3Ffamily%3DAtkinson%2BHyperlegible;" vertex="1" parent="T7_ayMRb7OsO0juk5p_l-303">
          <mxGeometry y="30" width="220" height="30" as="geometry" />
        </mxCell>
        <mxCell id="T7_ayMRb7OsO0juk5p_l-305" value="" style="shape=partialRectangle;html=1;whiteSpace=wrap;connectable=0;fillColor=none;top=0;left=0;bottom=0;right=0;overflow=hidden;pointerEvents=1;strokeColor=inherit;fontSize=16;fontFamily=Atkinson Hyperlegible;fontSource=https%3A%2F%2Ffonts.googleapis.com%2Fcss%3Ffamily%3DAtkinson%2BHyperlegible;" vertex="1" parent="T7_ayMRb7OsO0juk5p_l-304">
          <mxGeometry width="49" height="30" as="geometry">
            <mxRectangle width="49" height="30" as="alternateBounds" />
          </mxGeometry>
        </mxCell>
        <mxCell id="T7_ayMRb7OsO0juk5p_l-306" value="?" style="shape=partialRectangle;html=1;whiteSpace=wrap;connectable=0;fillColor=none;top=0;left=0;bottom=0;right=0;align=left;spacingLeft=6;overflow=hidden;strokeColor=inherit;fontSize=16;fontFamily=Atkinson Hyperlegible;fontSource=https%3A%2F%2Ffonts.googleapis.com%2Fcss%3Ffamily%3DAtkinson%2BHyperlegible;" vertex="1" parent="T7_ayMRb7OsO0juk5p_l-304">
          <mxGeometry x="49" width="171" height="30" as="geometry">
            <mxRectangle width="171" height="30" as="alternateBounds" />
          </mxGeometry>
        </mxCell>
        <mxCell id="T7_ayMRb7OsO0juk5p_l-307" value="" style="shape=tableRow;horizontal=0;startSize=0;swimlaneHead=0;swimlaneBody=0;top=1;left=1;bottom=1;right=1;collapsible=0;dropTarget=0;fillColor=none;points=[[0,0.5],[1,0.5]];portConstraint=eastwest;strokeColor=inherit;fontSize=16;fontFamily=Atkinson Hyperlegible;fontSource=https%3A%2F%2Ffonts.googleapis.com%2Fcss%3Ffamily%3DAtkinson%2BHyperlegible;" vertex="1" parent="T7_ayMRb7OsO0juk5p_l-303">
          <mxGeometry y="60" width="220" height="30" as="geometry" />
        </mxCell>
        <mxCell id="T7_ayMRb7OsO0juk5p_l-308" value="" style="shape=partialRectangle;html=1;whiteSpace=wrap;connectable=0;fillColor=none;top=0;left=0;bottom=0;right=0;overflow=hidden;strokeColor=inherit;fontSize=16;fontFamily=Atkinson Hyperlegible;fontSource=https%3A%2F%2Ffonts.googleapis.com%2Fcss%3Ffamily%3DAtkinson%2BHyperlegible;" vertex="1" parent="T7_ayMRb7OsO0juk5p_l-307">
          <mxGeometry width="49" height="30" as="geometry">
            <mxRectangle width="49" height="30" as="alternateBounds" />
          </mxGeometry>
        </mxCell>
        <mxCell id="T7_ayMRb7OsO0juk5p_l-309" value="?" style="shape=partialRectangle;html=1;whiteSpace=wrap;connectable=0;fillColor=none;top=0;left=0;bottom=0;right=0;align=left;spacingLeft=6;overflow=hidden;strokeColor=inherit;fontSize=16;fontFamily=Atkinson Hyperlegible;fontSource=https%3A%2F%2Ffonts.googleapis.com%2Fcss%3Ffamily%3DAtkinson%2BHyperlegible;" vertex="1" parent="T7_ayMRb7OsO0juk5p_l-307">
          <mxGeometry x="49" width="171" height="30" as="geometry">
            <mxRectangle width="171" height="30" as="alternateBounds" />
          </mxGeometry>
        </mxCell>
        <mxCell id="T7_ayMRb7OsO0juk5p_l-310" value="" style="shape=tableRow;horizontal=0;startSize=0;swimlaneHead=0;swimlaneBody=0;top=0;left=0;bottom=0;right=0;collapsible=0;dropTarget=0;fillColor=none;points=[[0,0.5],[1,0.5]];portConstraint=eastwest;strokeColor=inherit;fontSize=16;fontFamily=Atkinson Hyperlegible;fontSource=https%3A%2F%2Ffonts.googleapis.com%2Fcss%3Ffamily%3DAtkinson%2BHyperlegible;" vertex="1" parent="T7_ayMRb7OsO0juk5p_l-303">
          <mxGeometry y="90" width="220" height="30" as="geometry" />
        </mxCell>
        <mxCell id="T7_ayMRb7OsO0juk5p_l-311" value="" style="shape=partialRectangle;html=1;whiteSpace=wrap;connectable=0;fillColor=none;top=0;left=0;bottom=0;right=0;overflow=hidden;strokeColor=inherit;fontSize=16;fontFamily=Atkinson Hyperlegible;fontSource=https%3A%2F%2Ffonts.googleapis.com%2Fcss%3Ffamily%3DAtkinson%2BHyperlegible;" vertex="1" parent="T7_ayMRb7OsO0juk5p_l-310">
          <mxGeometry width="49" height="30" as="geometry">
            <mxRectangle width="49" height="30" as="alternateBounds" />
          </mxGeometry>
        </mxCell>
        <mxCell id="T7_ayMRb7OsO0juk5p_l-312" value="?" style="shape=partialRectangle;html=1;whiteSpace=wrap;connectable=0;fillColor=none;top=0;left=0;bottom=0;right=0;align=left;spacingLeft=6;overflow=hidden;strokeColor=inherit;fontSize=16;fontFamily=Atkinson Hyperlegible;fontSource=https%3A%2F%2Ffonts.googleapis.com%2Fcss%3Ffamily%3DAtkinson%2BHyperlegible;" vertex="1" parent="T7_ayMRb7OsO0juk5p_l-310">
          <mxGeometry x="49" width="171" height="30" as="geometry">
            <mxRectangle width="171" height="30" as="alternateBounds" />
          </mxGeometry>
        </mxCell>
        <mxCell id="T7_ayMRb7OsO0juk5p_l-313" value="&lt;font style=&quot;font-size: 23px;&quot; data-font-src=&quot;https://fonts.googleapis.com/css?family=Atkinson+Hyperlegible&quot;&gt;Everything I will need to know about my study&lt;br&gt;Andy Student (33412345)&lt;br&gt;&lt;/font&gt;" style="swimlane;whiteSpace=wrap;html=1;startSize=70;fontFamily=Atkinson Hyperlegible;fontSource=https%3A%2F%2Ffonts.googleapis.com%2Fcss%3Ffamily%3DAtkinson%2BHyperlegible;" vertex="1" parent="T7_ayMRb7OsO0juk5p_l-221">
          <mxGeometry x="10" y="540" width="930" height="610" as="geometry">
            <mxRectangle x="10" y="540" width="500" height="70" as="alternateBounds" />
          </mxGeometry>
        </mxCell>
      </root>
    </mxGraphModel>
  </diagram>
</mxfile>
